<?xml version="1.0" encoding="utf-8" standalone="no"?>
<!DOCTYPE svg PUBLIC "-//W3C//DTD SVG 1.1//EN"
  "http://www.w3.org/Graphics/SVG/1.1/DTD/svg11.dtd">
<svg xmlns:xlink="http://www.w3.org/1999/xlink" width="460.8pt" height="345.6pt" viewBox="0 0 460.8 345.6" xmlns="http://www.w3.org/2000/svg" version="1.1">
 <metadata>
  <rdf:RDF xmlns:dc="http://purl.org/dc/elements/1.1/" xmlns:cc="http://creativecommons.org/ns#" xmlns:rdf="http://www.w3.org/1999/02/22-rdf-syntax-ns#">
   <cc:Work>
    <dc:type rdf:resource="http://purl.org/dc/dcmitype/StillImage"/>
    <dc:date>2024-03-28T16:30:48.074299</dc:date>
    <dc:format>image/svg+xml</dc:format>
    <dc:creator>
     <cc:Agent>
      <dc:title>Matplotlib v3.7.2, https://matplotlib.org/</dc:title>
     </cc:Agent>
    </dc:creator>
   </cc:Work>
  </rdf:RDF>
 </metadata>
 <defs>
  <style type="text/css">*{stroke-linejoin: round; stroke-linecap: butt}</style>
 </defs>
 <g id="figure_1">
  <g id="patch_1">
   <path d="M 0 345.6 
L 460.8 345.6 
L 460.8 0 
L 0 0 
z
" style="fill: #ffffff"/>
  </g>
  <g id="axes_1">
   <g id="patch_2">
    <path d="M 57.6 307.584 
L 414.72 307.584 
L 414.72 41.472 
L 57.6 41.472 
z
" style="fill: #ffffff"/>
   </g>
   <g id="matplotlib.axis_1">
    <g id="xtick_1">
     <g id="line2d_1">
      <defs>
       <path id="mc2ff2d17d9" d="M 0 0 
L 0 3.5 
" style="stroke: #000000; stroke-width: 0.8"/>
      </defs>
      <g>
       <use xlink:href="#mc2ff2d17d9" x="69.723176" y="307.584" style="stroke: #000000; stroke-width: 0.8"/>
      </g>
     </g>
     <g id="text_1">
      <!-- 0.0 -->
      <g transform="translate(61.771614 322.182437) scale(0.1 -0.1)">
       <defs>
        <path id="DejaVuSans-30" d="M 2034 4250 
Q 1547 4250 1301 3770 
Q 1056 3291 1056 2328 
Q 1056 1369 1301 889 
Q 1547 409 2034 409 
Q 2525 409 2770 889 
Q 3016 1369 3016 2328 
Q 3016 3291 2770 3770 
Q 2525 4250 2034 4250 
z
M 2034 4750 
Q 2819 4750 3233 4129 
Q 3647 3509 3647 2328 
Q 3647 1150 3233 529 
Q 2819 -91 2034 -91 
Q 1250 -91 836 529 
Q 422 1150 422 2328 
Q 422 3509 836 4129 
Q 1250 4750 2034 4750 
z
" transform="scale(0.015625)"/>
        <path id="DejaVuSans-2e" d="M 684 794 
L 1344 794 
L 1344 0 
L 684 0 
L 684 794 
z
" transform="scale(0.015625)"/>
       </defs>
       <use xlink:href="#DejaVuSans-30"/>
       <use xlink:href="#DejaVuSans-2e" x="63.623047"/>
       <use xlink:href="#DejaVuSans-30" x="95.410156"/>
      </g>
     </g>
    </g>
    <g id="xtick_2">
     <g id="line2d_2">
      <g>
       <use xlink:href="#mc2ff2d17d9" x="110.437085" y="307.584" style="stroke: #000000; stroke-width: 0.8"/>
      </g>
     </g>
     <g id="text_2">
      <!-- 0.5 -->
      <g transform="translate(102.485522 322.182437) scale(0.1 -0.1)">
       <defs>
        <path id="DejaVuSans-35" d="M 691 4666 
L 3169 4666 
L 3169 4134 
L 1269 4134 
L 1269 2991 
Q 1406 3038 1543 3061 
Q 1681 3084 1819 3084 
Q 2600 3084 3056 2656 
Q 3513 2228 3513 1497 
Q 3513 744 3044 326 
Q 2575 -91 1722 -91 
Q 1428 -91 1123 -41 
Q 819 9 494 109 
L 494 744 
Q 775 591 1075 516 
Q 1375 441 1709 441 
Q 2250 441 2565 725 
Q 2881 1009 2881 1497 
Q 2881 1984 2565 2268 
Q 2250 2553 1709 2553 
Q 1456 2553 1204 2497 
Q 953 2441 691 2322 
L 691 4666 
z
" transform="scale(0.015625)"/>
       </defs>
       <use xlink:href="#DejaVuSans-30"/>
       <use xlink:href="#DejaVuSans-2e" x="63.623047"/>
       <use xlink:href="#DejaVuSans-35" x="95.410156"/>
      </g>
     </g>
    </g>
    <g id="xtick_3">
     <g id="line2d_3">
      <g>
       <use xlink:href="#mc2ff2d17d9" x="151.150994" y="307.584" style="stroke: #000000; stroke-width: 0.8"/>
      </g>
     </g>
     <g id="text_3">
      <!-- 1.0 -->
      <g transform="translate(143.199431 322.182437) scale(0.1 -0.1)">
       <defs>
        <path id="DejaVuSans-31" d="M 794 531 
L 1825 531 
L 1825 4091 
L 703 3866 
L 703 4441 
L 1819 4666 
L 2450 4666 
L 2450 531 
L 3481 531 
L 3481 0 
L 794 0 
L 794 531 
z
" transform="scale(0.015625)"/>
       </defs>
       <use xlink:href="#DejaVuSans-31"/>
       <use xlink:href="#DejaVuSans-2e" x="63.623047"/>
       <use xlink:href="#DejaVuSans-30" x="95.410156"/>
      </g>
     </g>
    </g>
    <g id="xtick_4">
     <g id="line2d_4">
      <g>
       <use xlink:href="#mc2ff2d17d9" x="191.864902" y="307.584" style="stroke: #000000; stroke-width: 0.8"/>
      </g>
     </g>
     <g id="text_4">
      <!-- 1.5 -->
      <g transform="translate(183.91334 322.182437) scale(0.1 -0.1)">
       <use xlink:href="#DejaVuSans-31"/>
       <use xlink:href="#DejaVuSans-2e" x="63.623047"/>
       <use xlink:href="#DejaVuSans-35" x="95.410156"/>
      </g>
     </g>
    </g>
    <g id="xtick_5">
     <g id="line2d_5">
      <g>
       <use xlink:href="#mc2ff2d17d9" x="232.578811" y="307.584" style="stroke: #000000; stroke-width: 0.8"/>
      </g>
     </g>
     <g id="text_5">
      <!-- 2.0 -->
      <g transform="translate(224.627249 322.182437) scale(0.1 -0.1)">
       <defs>
        <path id="DejaVuSans-32" d="M 1228 531 
L 3431 531 
L 3431 0 
L 469 0 
L 469 531 
Q 828 903 1448 1529 
Q 2069 2156 2228 2338 
Q 2531 2678 2651 2914 
Q 2772 3150 2772 3378 
Q 2772 3750 2511 3984 
Q 2250 4219 1831 4219 
Q 1534 4219 1204 4116 
Q 875 4013 500 3803 
L 500 4441 
Q 881 4594 1212 4672 
Q 1544 4750 1819 4750 
Q 2544 4750 2975 4387 
Q 3406 4025 3406 3419 
Q 3406 3131 3298 2873 
Q 3191 2616 2906 2266 
Q 2828 2175 2409 1742 
Q 1991 1309 1228 531 
z
" transform="scale(0.015625)"/>
       </defs>
       <use xlink:href="#DejaVuSans-32"/>
       <use xlink:href="#DejaVuSans-2e" x="63.623047"/>
       <use xlink:href="#DejaVuSans-30" x="95.410156"/>
      </g>
     </g>
    </g>
    <g id="xtick_6">
     <g id="line2d_6">
      <g>
       <use xlink:href="#mc2ff2d17d9" x="273.29272" y="307.584" style="stroke: #000000; stroke-width: 0.8"/>
      </g>
     </g>
     <g id="text_6">
      <!-- 2.5 -->
      <g transform="translate(265.341157 322.182437) scale(0.1 -0.1)">
       <use xlink:href="#DejaVuSans-32"/>
       <use xlink:href="#DejaVuSans-2e" x="63.623047"/>
       <use xlink:href="#DejaVuSans-35" x="95.410156"/>
      </g>
     </g>
    </g>
    <g id="xtick_7">
     <g id="line2d_7">
      <g>
       <use xlink:href="#mc2ff2d17d9" x="314.006629" y="307.584" style="stroke: #000000; stroke-width: 0.8"/>
      </g>
     </g>
     <g id="text_7">
      <!-- 3.0 -->
      <g transform="translate(306.055066 322.182437) scale(0.1 -0.1)">
       <defs>
        <path id="DejaVuSans-33" d="M 2597 2516 
Q 3050 2419 3304 2112 
Q 3559 1806 3559 1356 
Q 3559 666 3084 287 
Q 2609 -91 1734 -91 
Q 1441 -91 1130 -33 
Q 819 25 488 141 
L 488 750 
Q 750 597 1062 519 
Q 1375 441 1716 441 
Q 2309 441 2620 675 
Q 2931 909 2931 1356 
Q 2931 1769 2642 2001 
Q 2353 2234 1838 2234 
L 1294 2234 
L 1294 2753 
L 1863 2753 
Q 2328 2753 2575 2939 
Q 2822 3125 2822 3475 
Q 2822 3834 2567 4026 
Q 2313 4219 1838 4219 
Q 1578 4219 1281 4162 
Q 984 4106 628 3988 
L 628 4550 
Q 988 4650 1302 4700 
Q 1616 4750 1894 4750 
Q 2613 4750 3031 4423 
Q 3450 4097 3450 3541 
Q 3450 3153 3228 2886 
Q 3006 2619 2597 2516 
z
" transform="scale(0.015625)"/>
       </defs>
       <use xlink:href="#DejaVuSans-33"/>
       <use xlink:href="#DejaVuSans-2e" x="63.623047"/>
       <use xlink:href="#DejaVuSans-30" x="95.410156"/>
      </g>
     </g>
    </g>
    <g id="xtick_8">
     <g id="line2d_8">
      <g>
       <use xlink:href="#mc2ff2d17d9" x="354.720538" y="307.584" style="stroke: #000000; stroke-width: 0.8"/>
      </g>
     </g>
     <g id="text_8">
      <!-- 3.5 -->
      <g transform="translate(346.768975 322.182437) scale(0.1 -0.1)">
       <use xlink:href="#DejaVuSans-33"/>
       <use xlink:href="#DejaVuSans-2e" x="63.623047"/>
       <use xlink:href="#DejaVuSans-35" x="95.410156"/>
      </g>
     </g>
    </g>
    <g id="xtick_9">
     <g id="line2d_9">
      <g>
       <use xlink:href="#mc2ff2d17d9" x="395.434446" y="307.584" style="stroke: #000000; stroke-width: 0.8"/>
      </g>
     </g>
     <g id="text_9">
      <!-- 4.0 -->
      <g transform="translate(387.482884 322.182437) scale(0.1 -0.1)">
       <defs>
        <path id="DejaVuSans-34" d="M 2419 4116 
L 825 1625 
L 2419 1625 
L 2419 4116 
z
M 2253 4666 
L 3047 4666 
L 3047 1625 
L 3713 1625 
L 3713 1100 
L 3047 1100 
L 3047 0 
L 2419 0 
L 2419 1100 
L 313 1100 
L 313 1709 
L 2253 4666 
z
" transform="scale(0.015625)"/>
       </defs>
       <use xlink:href="#DejaVuSans-34"/>
       <use xlink:href="#DejaVuSans-2e" x="63.623047"/>
       <use xlink:href="#DejaVuSans-30" x="95.410156"/>
      </g>
     </g>
    </g>
    <g id="text_10">
     <!-- Distance ($\mu$m) -->
     <g transform="translate(186.53 338.902125) scale(0.14 -0.14)">
      <defs>
       <path id="DejaVuSans-44" d="M 1259 4147 
L 1259 519 
L 2022 519 
Q 2988 519 3436 956 
Q 3884 1394 3884 2338 
Q 3884 3275 3436 3711 
Q 2988 4147 2022 4147 
L 1259 4147 
z
M 628 4666 
L 1925 4666 
Q 3281 4666 3915 4102 
Q 4550 3538 4550 2338 
Q 4550 1131 3912 565 
Q 3275 0 1925 0 
L 628 0 
L 628 4666 
z
" transform="scale(0.015625)"/>
       <path id="DejaVuSans-69" d="M 603 3500 
L 1178 3500 
L 1178 0 
L 603 0 
L 603 3500 
z
M 603 4863 
L 1178 4863 
L 1178 4134 
L 603 4134 
L 603 4863 
z
" transform="scale(0.015625)"/>
       <path id="DejaVuSans-73" d="M 2834 3397 
L 2834 2853 
Q 2591 2978 2328 3040 
Q 2066 3103 1784 3103 
Q 1356 3103 1142 2972 
Q 928 2841 928 2578 
Q 928 2378 1081 2264 
Q 1234 2150 1697 2047 
L 1894 2003 
Q 2506 1872 2764 1633 
Q 3022 1394 3022 966 
Q 3022 478 2636 193 
Q 2250 -91 1575 -91 
Q 1294 -91 989 -36 
Q 684 19 347 128 
L 347 722 
Q 666 556 975 473 
Q 1284 391 1588 391 
Q 1994 391 2212 530 
Q 2431 669 2431 922 
Q 2431 1156 2273 1281 
Q 2116 1406 1581 1522 
L 1381 1569 
Q 847 1681 609 1914 
Q 372 2147 372 2553 
Q 372 3047 722 3315 
Q 1072 3584 1716 3584 
Q 2034 3584 2315 3537 
Q 2597 3491 2834 3397 
z
" transform="scale(0.015625)"/>
       <path id="DejaVuSans-74" d="M 1172 4494 
L 1172 3500 
L 2356 3500 
L 2356 3053 
L 1172 3053 
L 1172 1153 
Q 1172 725 1289 603 
Q 1406 481 1766 481 
L 2356 481 
L 2356 0 
L 1766 0 
Q 1100 0 847 248 
Q 594 497 594 1153 
L 594 3053 
L 172 3053 
L 172 3500 
L 594 3500 
L 594 4494 
L 1172 4494 
z
" transform="scale(0.015625)"/>
       <path id="DejaVuSans-61" d="M 2194 1759 
Q 1497 1759 1228 1600 
Q 959 1441 959 1056 
Q 959 750 1161 570 
Q 1363 391 1709 391 
Q 2188 391 2477 730 
Q 2766 1069 2766 1631 
L 2766 1759 
L 2194 1759 
z
M 3341 1997 
L 3341 0 
L 2766 0 
L 2766 531 
Q 2569 213 2275 61 
Q 1981 -91 1556 -91 
Q 1019 -91 701 211 
Q 384 513 384 1019 
Q 384 1609 779 1909 
Q 1175 2209 1959 2209 
L 2766 2209 
L 2766 2266 
Q 2766 2663 2505 2880 
Q 2244 3097 1772 3097 
Q 1472 3097 1187 3025 
Q 903 2953 641 2809 
L 641 3341 
Q 956 3463 1253 3523 
Q 1550 3584 1831 3584 
Q 2591 3584 2966 3190 
Q 3341 2797 3341 1997 
z
" transform="scale(0.015625)"/>
       <path id="DejaVuSans-6e" d="M 3513 2113 
L 3513 0 
L 2938 0 
L 2938 2094 
Q 2938 2591 2744 2837 
Q 2550 3084 2163 3084 
Q 1697 3084 1428 2787 
Q 1159 2491 1159 1978 
L 1159 0 
L 581 0 
L 581 3500 
L 1159 3500 
L 1159 2956 
Q 1366 3272 1645 3428 
Q 1925 3584 2291 3584 
Q 2894 3584 3203 3211 
Q 3513 2838 3513 2113 
z
" transform="scale(0.015625)"/>
       <path id="DejaVuSans-63" d="M 3122 3366 
L 3122 2828 
Q 2878 2963 2633 3030 
Q 2388 3097 2138 3097 
Q 1578 3097 1268 2742 
Q 959 2388 959 1747 
Q 959 1106 1268 751 
Q 1578 397 2138 397 
Q 2388 397 2633 464 
Q 2878 531 3122 666 
L 3122 134 
Q 2881 22 2623 -34 
Q 2366 -91 2075 -91 
Q 1284 -91 818 406 
Q 353 903 353 1747 
Q 353 2603 823 3093 
Q 1294 3584 2113 3584 
Q 2378 3584 2631 3529 
Q 2884 3475 3122 3366 
z
" transform="scale(0.015625)"/>
       <path id="DejaVuSans-65" d="M 3597 1894 
L 3597 1613 
L 953 1613 
Q 991 1019 1311 708 
Q 1631 397 2203 397 
Q 2534 397 2845 478 
Q 3156 559 3463 722 
L 3463 178 
Q 3153 47 2828 -22 
Q 2503 -91 2169 -91 
Q 1331 -91 842 396 
Q 353 884 353 1716 
Q 353 2575 817 3079 
Q 1281 3584 2069 3584 
Q 2775 3584 3186 3129 
Q 3597 2675 3597 1894 
z
M 3022 2063 
Q 3016 2534 2758 2815 
Q 2500 3097 2075 3097 
Q 1594 3097 1305 2825 
Q 1016 2553 972 2059 
L 3022 2063 
z
" transform="scale(0.015625)"/>
       <path id="DejaVuSans-20" transform="scale(0.015625)"/>
       <path id="DejaVuSans-28" d="M 1984 4856 
Q 1566 4138 1362 3434 
Q 1159 2731 1159 2009 
Q 1159 1288 1364 580 
Q 1569 -128 1984 -844 
L 1484 -844 
Q 1016 -109 783 600 
Q 550 1309 550 2009 
Q 550 2706 781 3412 
Q 1013 4119 1484 4856 
L 1984 4856 
z
" transform="scale(0.015625)"/>
       <path id="DejaVuSans-Oblique-3bc" d="M -84 -1331 
L 856 3500 
L 1434 3500 
L 1009 1322 
Q 997 1256 987 1175 
Q 978 1094 978 1013 
Q 978 722 1161 565 
Q 1344 409 1684 409 
Q 2147 409 2431 671 
Q 2716 934 2816 1459 
L 3213 3500 
L 3788 3500 
L 3266 809 
Q 3253 750 3248 706 
Q 3244 663 3244 628 
Q 3244 531 3283 486 
Q 3322 441 3406 441 
Q 3438 441 3492 456 
Q 3547 472 3647 513 
L 3559 50 
Q 3422 -19 3297 -55 
Q 3172 -91 3053 -91 
Q 2847 -91 2730 40 
Q 2613 172 2613 403 
Q 2438 153 2195 31 
Q 1953 -91 1625 -91 
Q 1334 -91 1117 43 
Q 900 178 831 397 
L 494 -1331 
L -84 -1331 
z
" transform="scale(0.015625)"/>
       <path id="DejaVuSans-6d" d="M 3328 2828 
Q 3544 3216 3844 3400 
Q 4144 3584 4550 3584 
Q 5097 3584 5394 3201 
Q 5691 2819 5691 2113 
L 5691 0 
L 5113 0 
L 5113 2094 
Q 5113 2597 4934 2840 
Q 4756 3084 4391 3084 
Q 3944 3084 3684 2787 
Q 3425 2491 3425 1978 
L 3425 0 
L 2847 0 
L 2847 2094 
Q 2847 2600 2669 2842 
Q 2491 3084 2119 3084 
Q 1678 3084 1418 2786 
Q 1159 2488 1159 1978 
L 1159 0 
L 581 0 
L 581 3500 
L 1159 3500 
L 1159 2956 
Q 1356 3278 1631 3431 
Q 1906 3584 2284 3584 
Q 2666 3584 2933 3390 
Q 3200 3197 3328 2828 
z
" transform="scale(0.015625)"/>
       <path id="DejaVuSans-29" d="M 513 4856 
L 1013 4856 
Q 1481 4119 1714 3412 
Q 1947 2706 1947 2009 
Q 1947 1309 1714 600 
Q 1481 -109 1013 -844 
L 513 -844 
Q 928 -128 1133 580 
Q 1338 1288 1338 2009 
Q 1338 2731 1133 3434 
Q 928 4138 513 4856 
z
" transform="scale(0.015625)"/>
      </defs>
      <use xlink:href="#DejaVuSans-44" transform="translate(0 0.015625)"/>
      <use xlink:href="#DejaVuSans-69" transform="translate(77.001953 0.015625)"/>
      <use xlink:href="#DejaVuSans-73" transform="translate(104.785156 0.015625)"/>
      <use xlink:href="#DejaVuSans-74" transform="translate(156.884766 0.015625)"/>
      <use xlink:href="#DejaVuSans-61" transform="translate(196.09375 0.015625)"/>
      <use xlink:href="#DejaVuSans-6e" transform="translate(257.373047 0.015625)"/>
      <use xlink:href="#DejaVuSans-63" transform="translate(320.751953 0.015625)"/>
      <use xlink:href="#DejaVuSans-65" transform="translate(375.732422 0.015625)"/>
      <use xlink:href="#DejaVuSans-20" transform="translate(437.255859 0.015625)"/>
      <use xlink:href="#DejaVuSans-28" transform="translate(469.042969 0.015625)"/>
      <use xlink:href="#DejaVuSans-Oblique-3bc" transform="translate(508.056641 0.015625)"/>
      <use xlink:href="#DejaVuSans-6d" transform="translate(571.679688 0.015625)"/>
      <use xlink:href="#DejaVuSans-29" transform="translate(669.091797 0.015625)"/>
     </g>
    </g>
   </g>
   <g id="matplotlib.axis_2">
    <g id="ytick_1">
     <g id="line2d_10">
      <defs>
       <path id="m740730e93b" d="M 0 0 
L -3.5 0 
" style="stroke: #000000; stroke-width: 0.8"/>
      </defs>
      <g>
       <use xlink:href="#m740730e93b" x="57.6" y="259.941534" style="stroke: #000000; stroke-width: 0.8"/>
      </g>
     </g>
     <g id="text_11">
      <!-- 0.1 -->
      <g transform="translate(34.696875 263.740753) scale(0.1 -0.1)">
       <use xlink:href="#DejaVuSans-30"/>
       <use xlink:href="#DejaVuSans-2e" x="63.623047"/>
       <use xlink:href="#DejaVuSans-31" x="95.410156"/>
      </g>
     </g>
    </g>
    <g id="ytick_2">
     <g id="line2d_11">
      <g>
       <use xlink:href="#m740730e93b" x="57.6" y="205.703156" style="stroke: #000000; stroke-width: 0.8"/>
      </g>
     </g>
     <g id="text_12">
      <!-- 0.2 -->
      <g transform="translate(34.696875 209.502375) scale(0.1 -0.1)">
       <use xlink:href="#DejaVuSans-30"/>
       <use xlink:href="#DejaVuSans-2e" x="63.623047"/>
       <use xlink:href="#DejaVuSans-32" x="95.410156"/>
      </g>
     </g>
    </g>
    <g id="ytick_3">
     <g id="line2d_12">
      <g>
       <use xlink:href="#m740730e93b" x="57.6" y="151.464778" style="stroke: #000000; stroke-width: 0.8"/>
      </g>
     </g>
     <g id="text_13">
      <!-- 0.3 -->
      <g transform="translate(34.696875 155.263997) scale(0.1 -0.1)">
       <use xlink:href="#DejaVuSans-30"/>
       <use xlink:href="#DejaVuSans-2e" x="63.623047"/>
       <use xlink:href="#DejaVuSans-33" x="95.410156"/>
      </g>
     </g>
    </g>
    <g id="ytick_4">
     <g id="line2d_13">
      <g>
       <use xlink:href="#m740730e93b" x="57.6" y="97.2264" style="stroke: #000000; stroke-width: 0.8"/>
      </g>
     </g>
     <g id="text_14">
      <!-- 0.4 -->
      <g transform="translate(34.696875 101.025619) scale(0.1 -0.1)">
       <use xlink:href="#DejaVuSans-30"/>
       <use xlink:href="#DejaVuSans-2e" x="63.623047"/>
       <use xlink:href="#DejaVuSans-34" x="95.410156"/>
      </g>
     </g>
    </g>
    <g id="ytick_5">
     <g id="line2d_14">
      <g>
       <use xlink:href="#m740730e93b" x="57.6" y="42.988023" style="stroke: #000000; stroke-width: 0.8"/>
      </g>
     </g>
     <g id="text_15">
      <!-- 0.5 -->
      <g transform="translate(34.696875 46.787241) scale(0.1 -0.1)">
       <use xlink:href="#DejaVuSans-30"/>
       <use xlink:href="#DejaVuSans-2e" x="63.623047"/>
       <use xlink:href="#DejaVuSans-35" x="95.410156"/>
      </g>
     </g>
    </g>
    <g id="text_16">
     <!-- daq voltage -->
     <g transform="translate(27.785312 216.086125) rotate(-90) scale(0.14 -0.14)">
      <defs>
       <path id="DejaVuSans-64" d="M 2906 2969 
L 2906 4863 
L 3481 4863 
L 3481 0 
L 2906 0 
L 2906 525 
Q 2725 213 2448 61 
Q 2172 -91 1784 -91 
Q 1150 -91 751 415 
Q 353 922 353 1747 
Q 353 2572 751 3078 
Q 1150 3584 1784 3584 
Q 2172 3584 2448 3432 
Q 2725 3281 2906 2969 
z
M 947 1747 
Q 947 1113 1208 752 
Q 1469 391 1925 391 
Q 2381 391 2643 752 
Q 2906 1113 2906 1747 
Q 2906 2381 2643 2742 
Q 2381 3103 1925 3103 
Q 1469 3103 1208 2742 
Q 947 2381 947 1747 
z
" transform="scale(0.015625)"/>
       <path id="DejaVuSans-71" d="M 947 1747 
Q 947 1113 1208 752 
Q 1469 391 1925 391 
Q 2381 391 2643 752 
Q 2906 1113 2906 1747 
Q 2906 2381 2643 2742 
Q 2381 3103 1925 3103 
Q 1469 3103 1208 2742 
Q 947 2381 947 1747 
z
M 2906 525 
Q 2725 213 2448 61 
Q 2172 -91 1784 -91 
Q 1150 -91 751 415 
Q 353 922 353 1747 
Q 353 2572 751 3078 
Q 1150 3584 1784 3584 
Q 2172 3584 2448 3432 
Q 2725 3281 2906 2969 
L 2906 3500 
L 3481 3500 
L 3481 -1331 
L 2906 -1331 
L 2906 525 
z
" transform="scale(0.015625)"/>
       <path id="DejaVuSans-76" d="M 191 3500 
L 800 3500 
L 1894 563 
L 2988 3500 
L 3597 3500 
L 2284 0 
L 1503 0 
L 191 3500 
z
" transform="scale(0.015625)"/>
       <path id="DejaVuSans-6f" d="M 1959 3097 
Q 1497 3097 1228 2736 
Q 959 2375 959 1747 
Q 959 1119 1226 758 
Q 1494 397 1959 397 
Q 2419 397 2687 759 
Q 2956 1122 2956 1747 
Q 2956 2369 2687 2733 
Q 2419 3097 1959 3097 
z
M 1959 3584 
Q 2709 3584 3137 3096 
Q 3566 2609 3566 1747 
Q 3566 888 3137 398 
Q 2709 -91 1959 -91 
Q 1206 -91 779 398 
Q 353 888 353 1747 
Q 353 2609 779 3096 
Q 1206 3584 1959 3584 
z
" transform="scale(0.015625)"/>
       <path id="DejaVuSans-6c" d="M 603 4863 
L 1178 4863 
L 1178 0 
L 603 0 
L 603 4863 
z
" transform="scale(0.015625)"/>
       <path id="DejaVuSans-67" d="M 2906 1791 
Q 2906 2416 2648 2759 
Q 2391 3103 1925 3103 
Q 1463 3103 1205 2759 
Q 947 2416 947 1791 
Q 947 1169 1205 825 
Q 1463 481 1925 481 
Q 2391 481 2648 825 
Q 2906 1169 2906 1791 
z
M 3481 434 
Q 3481 -459 3084 -895 
Q 2688 -1331 1869 -1331 
Q 1566 -1331 1297 -1286 
Q 1028 -1241 775 -1147 
L 775 -588 
Q 1028 -725 1275 -790 
Q 1522 -856 1778 -856 
Q 2344 -856 2625 -561 
Q 2906 -266 2906 331 
L 2906 616 
Q 2728 306 2450 153 
Q 2172 0 1784 0 
Q 1141 0 747 490 
Q 353 981 353 1791 
Q 353 2603 747 3093 
Q 1141 3584 1784 3584 
Q 2172 3584 2450 3431 
Q 2728 3278 2906 2969 
L 2906 3500 
L 3481 3500 
L 3481 434 
z
" transform="scale(0.015625)"/>
      </defs>
      <use xlink:href="#DejaVuSans-64"/>
      <use xlink:href="#DejaVuSans-61" x="63.476562"/>
      <use xlink:href="#DejaVuSans-71" x="124.755859"/>
      <use xlink:href="#DejaVuSans-20" x="188.232422"/>
      <use xlink:href="#DejaVuSans-76" x="220.019531"/>
      <use xlink:href="#DejaVuSans-6f" x="279.199219"/>
      <use xlink:href="#DejaVuSans-6c" x="340.380859"/>
      <use xlink:href="#DejaVuSans-74" x="368.164062"/>
      <use xlink:href="#DejaVuSans-61" x="407.373047"/>
      <use xlink:href="#DejaVuSans-67" x="468.652344"/>
      <use xlink:href="#DejaVuSans-65" x="532.128906"/>
     </g>
    </g>
   </g>
   <g id="line2d_15">
    <path d="M 73.832727 53.568 
L 77.942278 63.181215 
L 82.05183 68.512179 
L 86.161381 64.404715 
L 90.270932 71.833108 
L 94.380483 71.308751 
L 98.490035 74.979251 
L 102.599586 76.901894 
L 106.709137 90.185608 
L 110.818688 84.767251 
L 114.928239 101.371894 
L 119.037791 142.184358 
L 123.147342 130.036751 
L 127.256893 162.372108 
L 131.366444 174.519714 
L 135.475995 185.006857 
L 139.585547 211.399498 
L 143.695098 218.653105 
L 147.804649 230.888104 
L 151.9142 255.707673 
L 156.023751 274.671921 
L 160.133303 278.517207 
L 164.242854 279.915492 
L 168.352405 280.614635 
L 172.461956 280.177671 
L 176.571507 277.643278 
L 180.681059 276.594564 
L 184.79061 267.593101 
L 188.900161 269.253565 
L 193.009712 268.204851 
L 197.119264 260.426887 
L 201.228815 264.18478 
L 205.338366 262.524315 
L 209.447917 260.51428 
L 213.557468 262.786494 
L 217.66702 265.408279 
L 221.776571 259.203387 
L 225.886122 251.338031 
L 229.995673 247.842317 
L 234.105224 248.454067 
L 238.214776 246.444031 
L 242.324327 249.065817 
L 246.433878 252.823709 
L 250.543429 249.852352 
L 254.65298 254.047209 
L 258.762532 247.31796 
L 262.872083 241.287853 
L 266.981634 238.229103 
L 271.091185 232.810746 
L 275.200736 227.130211 
L 279.310288 226.868033 
L 283.419839 217.779176 
L 287.52939 216.206105 
L 291.638941 220.226176 
L 295.748493 223.284926 
L 299.858044 212.972569 
L 303.967595 204.495463 
L 308.077146 206.24332 
L 312.186697 208.602927 
L 316.296249 198.989713 
L 320.4058 209.91382 
L 324.515351 206.068534 
L 328.624902 208.952498 
L 332.734453 222.585783 
L 336.844005 197.591427 
L 340.953556 204.670248 
L 345.063107 200.300606 
L 349.172658 213.759105 
L 353.282209 207.554213 
L 357.391761 205.01982 
L 361.501312 216.031319 
L 365.610863 211.661677 
L 369.720414 215.594355 
L 373.829965 223.022747 
L 377.939517 225.382354 
L 382.049068 224.071461 
L 386.158619 220.575747 
L 390.26817 232.286389 
L 394.377722 228.703283 
L 398.487273 229.315032 
" clip-path="url(#paef2a7de65)" style="fill: none; stroke: #1f77b4; stroke-width: 1.5; stroke-linecap: square"/>
    <defs>
     <path id="m88238785a4" d="M 0 3 
C 0.795609 3 1.55874 2.683901 2.12132 2.12132 
C 2.683901 1.55874 3 0.795609 3 0 
C 3 -0.795609 2.683901 -1.55874 2.12132 -2.12132 
C 1.55874 -2.683901 0.795609 -3 0 -3 
C -0.795609 -3 -1.55874 -2.683901 -2.12132 -2.12132 
C -2.683901 -1.55874 -3 -0.795609 -3 0 
C -3 0.795609 -2.683901 1.55874 -2.12132 2.12132 
C -1.55874 2.683901 -0.795609 3 0 3 
z
" style="stroke: #1f77b4"/>
    </defs>
    <g clip-path="url(#paef2a7de65)">
     <use xlink:href="#m88238785a4" x="73.832727" y="53.568" style="fill: #1f77b4; stroke: #1f77b4"/>
     <use xlink:href="#m88238785a4" x="77.942278" y="63.181215" style="fill: #1f77b4; stroke: #1f77b4"/>
     <use xlink:href="#m88238785a4" x="82.05183" y="68.512179" style="fill: #1f77b4; stroke: #1f77b4"/>
     <use xlink:href="#m88238785a4" x="86.161381" y="64.404715" style="fill: #1f77b4; stroke: #1f77b4"/>
     <use xlink:href="#m88238785a4" x="90.270932" y="71.833108" style="fill: #1f77b4; stroke: #1f77b4"/>
     <use xlink:href="#m88238785a4" x="94.380483" y="71.308751" style="fill: #1f77b4; stroke: #1f77b4"/>
     <use xlink:href="#m88238785a4" x="98.490035" y="74.979251" style="fill: #1f77b4; stroke: #1f77b4"/>
     <use xlink:href="#m88238785a4" x="102.599586" y="76.901894" style="fill: #1f77b4; stroke: #1f77b4"/>
     <use xlink:href="#m88238785a4" x="106.709137" y="90.185608" style="fill: #1f77b4; stroke: #1f77b4"/>
     <use xlink:href="#m88238785a4" x="110.818688" y="84.767251" style="fill: #1f77b4; stroke: #1f77b4"/>
     <use xlink:href="#m88238785a4" x="114.928239" y="101.371894" style="fill: #1f77b4; stroke: #1f77b4"/>
     <use xlink:href="#m88238785a4" x="119.037791" y="142.184358" style="fill: #1f77b4; stroke: #1f77b4"/>
     <use xlink:href="#m88238785a4" x="123.147342" y="130.036751" style="fill: #1f77b4; stroke: #1f77b4"/>
     <use xlink:href="#m88238785a4" x="127.256893" y="162.372108" style="fill: #1f77b4; stroke: #1f77b4"/>
     <use xlink:href="#m88238785a4" x="131.366444" y="174.519714" style="fill: #1f77b4; stroke: #1f77b4"/>
     <use xlink:href="#m88238785a4" x="135.475995" y="185.006857" style="fill: #1f77b4; stroke: #1f77b4"/>
     <use xlink:href="#m88238785a4" x="139.585547" y="211.399498" style="fill: #1f77b4; stroke: #1f77b4"/>
     <use xlink:href="#m88238785a4" x="143.695098" y="218.653105" style="fill: #1f77b4; stroke: #1f77b4"/>
     <use xlink:href="#m88238785a4" x="147.804649" y="230.888104" style="fill: #1f77b4; stroke: #1f77b4"/>
     <use xlink:href="#m88238785a4" x="151.9142" y="255.707673" style="fill: #1f77b4; stroke: #1f77b4"/>
     <use xlink:href="#m88238785a4" x="156.023751" y="274.671921" style="fill: #1f77b4; stroke: #1f77b4"/>
     <use xlink:href="#m88238785a4" x="160.133303" y="278.517207" style="fill: #1f77b4; stroke: #1f77b4"/>
     <use xlink:href="#m88238785a4" x="164.242854" y="279.915492" style="fill: #1f77b4; stroke: #1f77b4"/>
     <use xlink:href="#m88238785a4" x="168.352405" y="280.614635" style="fill: #1f77b4; stroke: #1f77b4"/>
     <use xlink:href="#m88238785a4" x="172.461956" y="280.177671" style="fill: #1f77b4; stroke: #1f77b4"/>
     <use xlink:href="#m88238785a4" x="176.571507" y="277.643278" style="fill: #1f77b4; stroke: #1f77b4"/>
     <use xlink:href="#m88238785a4" x="180.681059" y="276.594564" style="fill: #1f77b4; stroke: #1f77b4"/>
     <use xlink:href="#m88238785a4" x="184.79061" y="267.593101" style="fill: #1f77b4; stroke: #1f77b4"/>
     <use xlink:href="#m88238785a4" x="188.900161" y="269.253565" style="fill: #1f77b4; stroke: #1f77b4"/>
     <use xlink:href="#m88238785a4" x="193.009712" y="268.204851" style="fill: #1f77b4; stroke: #1f77b4"/>
     <use xlink:href="#m88238785a4" x="197.119264" y="260.426887" style="fill: #1f77b4; stroke: #1f77b4"/>
     <use xlink:href="#m88238785a4" x="201.228815" y="264.18478" style="fill: #1f77b4; stroke: #1f77b4"/>
     <use xlink:href="#m88238785a4" x="205.338366" y="262.524315" style="fill: #1f77b4; stroke: #1f77b4"/>
     <use xlink:href="#m88238785a4" x="209.447917" y="260.51428" style="fill: #1f77b4; stroke: #1f77b4"/>
     <use xlink:href="#m88238785a4" x="213.557468" y="262.786494" style="fill: #1f77b4; stroke: #1f77b4"/>
     <use xlink:href="#m88238785a4" x="217.66702" y="265.408279" style="fill: #1f77b4; stroke: #1f77b4"/>
     <use xlink:href="#m88238785a4" x="221.776571" y="259.203387" style="fill: #1f77b4; stroke: #1f77b4"/>
     <use xlink:href="#m88238785a4" x="225.886122" y="251.338031" style="fill: #1f77b4; stroke: #1f77b4"/>
     <use xlink:href="#m88238785a4" x="229.995673" y="247.842317" style="fill: #1f77b4; stroke: #1f77b4"/>
     <use xlink:href="#m88238785a4" x="234.105224" y="248.454067" style="fill: #1f77b4; stroke: #1f77b4"/>
     <use xlink:href="#m88238785a4" x="238.214776" y="246.444031" style="fill: #1f77b4; stroke: #1f77b4"/>
     <use xlink:href="#m88238785a4" x="242.324327" y="249.065817" style="fill: #1f77b4; stroke: #1f77b4"/>
     <use xlink:href="#m88238785a4" x="246.433878" y="252.823709" style="fill: #1f77b4; stroke: #1f77b4"/>
     <use xlink:href="#m88238785a4" x="250.543429" y="249.852352" style="fill: #1f77b4; stroke: #1f77b4"/>
     <use xlink:href="#m88238785a4" x="254.65298" y="254.047209" style="fill: #1f77b4; stroke: #1f77b4"/>
     <use xlink:href="#m88238785a4" x="258.762532" y="247.31796" style="fill: #1f77b4; stroke: #1f77b4"/>
     <use xlink:href="#m88238785a4" x="262.872083" y="241.287853" style="fill: #1f77b4; stroke: #1f77b4"/>
     <use xlink:href="#m88238785a4" x="266.981634" y="238.229103" style="fill: #1f77b4; stroke: #1f77b4"/>
     <use xlink:href="#m88238785a4" x="271.091185" y="232.810746" style="fill: #1f77b4; stroke: #1f77b4"/>
     <use xlink:href="#m88238785a4" x="275.200736" y="227.130211" style="fill: #1f77b4; stroke: #1f77b4"/>
     <use xlink:href="#m88238785a4" x="279.310288" y="226.868033" style="fill: #1f77b4; stroke: #1f77b4"/>
     <use xlink:href="#m88238785a4" x="283.419839" y="217.779176" style="fill: #1f77b4; stroke: #1f77b4"/>
     <use xlink:href="#m88238785a4" x="287.52939" y="216.206105" style="fill: #1f77b4; stroke: #1f77b4"/>
     <use xlink:href="#m88238785a4" x="291.638941" y="220.226176" style="fill: #1f77b4; stroke: #1f77b4"/>
     <use xlink:href="#m88238785a4" x="295.748493" y="223.284926" style="fill: #1f77b4; stroke: #1f77b4"/>
     <use xlink:href="#m88238785a4" x="299.858044" y="212.972569" style="fill: #1f77b4; stroke: #1f77b4"/>
     <use xlink:href="#m88238785a4" x="303.967595" y="204.495463" style="fill: #1f77b4; stroke: #1f77b4"/>
     <use xlink:href="#m88238785a4" x="308.077146" y="206.24332" style="fill: #1f77b4; stroke: #1f77b4"/>
     <use xlink:href="#m88238785a4" x="312.186697" y="208.602927" style="fill: #1f77b4; stroke: #1f77b4"/>
     <use xlink:href="#m88238785a4" x="316.296249" y="198.989713" style="fill: #1f77b4; stroke: #1f77b4"/>
     <use xlink:href="#m88238785a4" x="320.4058" y="209.91382" style="fill: #1f77b4; stroke: #1f77b4"/>
     <use xlink:href="#m88238785a4" x="324.515351" y="206.068534" style="fill: #1f77b4; stroke: #1f77b4"/>
     <use xlink:href="#m88238785a4" x="328.624902" y="208.952498" style="fill: #1f77b4; stroke: #1f77b4"/>
     <use xlink:href="#m88238785a4" x="332.734453" y="222.585783" style="fill: #1f77b4; stroke: #1f77b4"/>
     <use xlink:href="#m88238785a4" x="336.844005" y="197.591427" style="fill: #1f77b4; stroke: #1f77b4"/>
     <use xlink:href="#m88238785a4" x="340.953556" y="204.670248" style="fill: #1f77b4; stroke: #1f77b4"/>
     <use xlink:href="#m88238785a4" x="345.063107" y="200.300606" style="fill: #1f77b4; stroke: #1f77b4"/>
     <use xlink:href="#m88238785a4" x="349.172658" y="213.759105" style="fill: #1f77b4; stroke: #1f77b4"/>
     <use xlink:href="#m88238785a4" x="353.282209" y="207.554213" style="fill: #1f77b4; stroke: #1f77b4"/>
     <use xlink:href="#m88238785a4" x="357.391761" y="205.01982" style="fill: #1f77b4; stroke: #1f77b4"/>
     <use xlink:href="#m88238785a4" x="361.501312" y="216.031319" style="fill: #1f77b4; stroke: #1f77b4"/>
     <use xlink:href="#m88238785a4" x="365.610863" y="211.661677" style="fill: #1f77b4; stroke: #1f77b4"/>
     <use xlink:href="#m88238785a4" x="369.720414" y="215.594355" style="fill: #1f77b4; stroke: #1f77b4"/>
     <use xlink:href="#m88238785a4" x="373.829965" y="223.022747" style="fill: #1f77b4; stroke: #1f77b4"/>
     <use xlink:href="#m88238785a4" x="377.939517" y="225.382354" style="fill: #1f77b4; stroke: #1f77b4"/>
     <use xlink:href="#m88238785a4" x="382.049068" y="224.071461" style="fill: #1f77b4; stroke: #1f77b4"/>
     <use xlink:href="#m88238785a4" x="386.158619" y="220.575747" style="fill: #1f77b4; stroke: #1f77b4"/>
     <use xlink:href="#m88238785a4" x="390.26817" y="232.286389" style="fill: #1f77b4; stroke: #1f77b4"/>
     <use xlink:href="#m88238785a4" x="394.377722" y="228.703283" style="fill: #1f77b4; stroke: #1f77b4"/>
     <use xlink:href="#m88238785a4" x="398.487273" y="229.315032" style="fill: #1f77b4; stroke: #1f77b4"/>
    </g>
   </g>
   <g id="line2d_16">
    <path d="M 73.832727 139.959119 
L 77.942278 118.534118 
L 82.05183 98.866173 
L 86.161381 81.851686 
L 90.270932 68.286652 
L 94.380483 58.806354 
L 98.490035 53.837683 
L 102.599586 53.568 
L 106.709137 57.93273 
L 110.818688 66.622353 
L 114.928239 79.108002 
L 119.037791 94.683524 
L 123.147342 112.520527 
L 127.256893 131.731598 
L 131.366444 151.435838 
L 135.475995 170.820311 
L 139.585547 189.191308 
L 143.695098 206.010515 
L 147.804649 220.91324 
L 151.9142 233.708342 
L 156.023751 244.362014 
L 160.133303 252.969543 
L 164.242854 259.720274 
L 168.352405 264.861106 
L 172.461956 268.663069 
L 176.571507 271.394126 
L 180.681059 273.29977 
L 184.79061 274.591489 
L 188.900161 275.442097 
L 193.009712 275.986273 
L 197.119264 276.324499 
L 201.228815 276.528738 
L 205.338366 276.64856 
L 209.447917 276.716859 
L 213.557468 276.754682 
L 217.66702 276.775033 
L 221.776571 276.785671 
L 225.886122 276.791075 
L 229.995673 276.793741 
L 234.105224 276.795019 
L 238.214776 276.795615 
L 242.324327 276.795884 
L 246.433878 276.796003 
L 250.543429 276.796054 
L 254.65298 276.796075 
L 258.762532 276.796083 
L 262.872083 276.796087 
L 266.981634 276.796089 
L 271.091185 276.796091 
L 275.200736 276.796095 
L 279.310288 276.796105 
L 283.419839 276.796128 
L 287.52939 276.796178 
L 291.638941 276.796287 
L 295.748493 276.796516 
L 299.858044 276.796984 
L 303.967595 276.797916 
L 308.077146 276.799716 
L 312.186697 276.803094 
L 316.296249 276.809258 
L 320.4058 276.820184 
L 324.515351 276.839006 
L 328.624902 276.870516 
L 332.734453 276.921778 
L 336.844005 277.002818 
L 340.953556 277.127318 
L 345.063107 277.313186 
L 349.172658 277.582842 
L 353.282209 277.963015 
L 357.391761 278.483873 
L 361.501312 279.17734 
L 365.610863 280.074564 
L 369.720414 281.202654 
L 373.829965 282.580994 
L 377.939517 284.217576 
L 382.049068 286.105952 
L 386.158619 288.223383 
L 390.26817 290.530658 
L 394.377722 292.97386 
L 398.487273 295.488 
" clip-path="url(#paef2a7de65)" style="fill: none; stroke: #ff7f0e; stroke-width: 1.5; stroke-linecap: square"/>
    <defs>
     <path id="m4637223e97" d="M 0 3 
C 0.795609 3 1.55874 2.683901 2.12132 2.12132 
C 2.683901 1.55874 3 0.795609 3 0 
C 3 -0.795609 2.683901 -1.55874 2.12132 -2.12132 
C 1.55874 -2.683901 0.795609 -3 0 -3 
C -0.795609 -3 -1.55874 -2.683901 -2.12132 -2.12132 
C -2.683901 -1.55874 -3 -0.795609 -3 0 
C -3 0.795609 -2.683901 1.55874 -2.12132 2.12132 
C -1.55874 2.683901 -0.795609 3 0 3 
z
" style="stroke: #ff7f0e"/>
    </defs>
    <g clip-path="url(#paef2a7de65)">
     <use xlink:href="#m4637223e97" x="73.832727" y="139.959119" style="fill: #ff7f0e; stroke: #ff7f0e"/>
     <use xlink:href="#m4637223e97" x="77.942278" y="118.534118" style="fill: #ff7f0e; stroke: #ff7f0e"/>
     <use xlink:href="#m4637223e97" x="82.05183" y="98.866173" style="fill: #ff7f0e; stroke: #ff7f0e"/>
     <use xlink:href="#m4637223e97" x="86.161381" y="81.851686" style="fill: #ff7f0e; stroke: #ff7f0e"/>
     <use xlink:href="#m4637223e97" x="90.270932" y="68.286652" style="fill: #ff7f0e; stroke: #ff7f0e"/>
     <use xlink:href="#m4637223e97" x="94.380483" y="58.806354" style="fill: #ff7f0e; stroke: #ff7f0e"/>
     <use xlink:href="#m4637223e97" x="98.490035" y="53.837683" style="fill: #ff7f0e; stroke: #ff7f0e"/>
     <use xlink:href="#m4637223e97" x="102.599586" y="53.568" style="fill: #ff7f0e; stroke: #ff7f0e"/>
     <use xlink:href="#m4637223e97" x="106.709137" y="57.93273" style="fill: #ff7f0e; stroke: #ff7f0e"/>
     <use xlink:href="#m4637223e97" x="110.818688" y="66.622353" style="fill: #ff7f0e; stroke: #ff7f0e"/>
     <use xlink:href="#m4637223e97" x="114.928239" y="79.108002" style="fill: #ff7f0e; stroke: #ff7f0e"/>
     <use xlink:href="#m4637223e97" x="119.037791" y="94.683524" style="fill: #ff7f0e; stroke: #ff7f0e"/>
     <use xlink:href="#m4637223e97" x="123.147342" y="112.520527" style="fill: #ff7f0e; stroke: #ff7f0e"/>
     <use xlink:href="#m4637223e97" x="127.256893" y="131.731598" style="fill: #ff7f0e; stroke: #ff7f0e"/>
     <use xlink:href="#m4637223e97" x="131.366444" y="151.435838" style="fill: #ff7f0e; stroke: #ff7f0e"/>
     <use xlink:href="#m4637223e97" x="135.475995" y="170.820311" style="fill: #ff7f0e; stroke: #ff7f0e"/>
     <use xlink:href="#m4637223e97" x="139.585547" y="189.191308" style="fill: #ff7f0e; stroke: #ff7f0e"/>
     <use xlink:href="#m4637223e97" x="143.695098" y="206.010515" style="fill: #ff7f0e; stroke: #ff7f0e"/>
     <use xlink:href="#m4637223e97" x="147.804649" y="220.91324" style="fill: #ff7f0e; stroke: #ff7f0e"/>
     <use xlink:href="#m4637223e97" x="151.9142" y="233.708342" style="fill: #ff7f0e; stroke: #ff7f0e"/>
     <use xlink:href="#m4637223e97" x="156.023751" y="244.362014" style="fill: #ff7f0e; stroke: #ff7f0e"/>
     <use xlink:href="#m4637223e97" x="160.133303" y="252.969543" style="fill: #ff7f0e; stroke: #ff7f0e"/>
     <use xlink:href="#m4637223e97" x="164.242854" y="259.720274" style="fill: #ff7f0e; stroke: #ff7f0e"/>
     <use xlink:href="#m4637223e97" x="168.352405" y="264.861106" style="fill: #ff7f0e; stroke: #ff7f0e"/>
     <use xlink:href="#m4637223e97" x="172.461956" y="268.663069" style="fill: #ff7f0e; stroke: #ff7f0e"/>
     <use xlink:href="#m4637223e97" x="176.571507" y="271.394126" style="fill: #ff7f0e; stroke: #ff7f0e"/>
     <use xlink:href="#m4637223e97" x="180.681059" y="273.29977" style="fill: #ff7f0e; stroke: #ff7f0e"/>
     <use xlink:href="#m4637223e97" x="184.79061" y="274.591489" style="fill: #ff7f0e; stroke: #ff7f0e"/>
     <use xlink:href="#m4637223e97" x="188.900161" y="275.442097" style="fill: #ff7f0e; stroke: #ff7f0e"/>
     <use xlink:href="#m4637223e97" x="193.009712" y="275.986273" style="fill: #ff7f0e; stroke: #ff7f0e"/>
     <use xlink:href="#m4637223e97" x="197.119264" y="276.324499" style="fill: #ff7f0e; stroke: #ff7f0e"/>
     <use xlink:href="#m4637223e97" x="201.228815" y="276.528738" style="fill: #ff7f0e; stroke: #ff7f0e"/>
     <use xlink:href="#m4637223e97" x="205.338366" y="276.64856" style="fill: #ff7f0e; stroke: #ff7f0e"/>
     <use xlink:href="#m4637223e97" x="209.447917" y="276.716859" style="fill: #ff7f0e; stroke: #ff7f0e"/>
     <use xlink:href="#m4637223e97" x="213.557468" y="276.754682" style="fill: #ff7f0e; stroke: #ff7f0e"/>
     <use xlink:href="#m4637223e97" x="217.66702" y="276.775033" style="fill: #ff7f0e; stroke: #ff7f0e"/>
     <use xlink:href="#m4637223e97" x="221.776571" y="276.785671" style="fill: #ff7f0e; stroke: #ff7f0e"/>
     <use xlink:href="#m4637223e97" x="225.886122" y="276.791075" style="fill: #ff7f0e; stroke: #ff7f0e"/>
     <use xlink:href="#m4637223e97" x="229.995673" y="276.793741" style="fill: #ff7f0e; stroke: #ff7f0e"/>
     <use xlink:href="#m4637223e97" x="234.105224" y="276.795019" style="fill: #ff7f0e; stroke: #ff7f0e"/>
     <use xlink:href="#m4637223e97" x="238.214776" y="276.795615" style="fill: #ff7f0e; stroke: #ff7f0e"/>
     <use xlink:href="#m4637223e97" x="242.324327" y="276.795884" style="fill: #ff7f0e; stroke: #ff7f0e"/>
     <use xlink:href="#m4637223e97" x="246.433878" y="276.796003" style="fill: #ff7f0e; stroke: #ff7f0e"/>
     <use xlink:href="#m4637223e97" x="250.543429" y="276.796054" style="fill: #ff7f0e; stroke: #ff7f0e"/>
     <use xlink:href="#m4637223e97" x="254.65298" y="276.796075" style="fill: #ff7f0e; stroke: #ff7f0e"/>
     <use xlink:href="#m4637223e97" x="258.762532" y="276.796083" style="fill: #ff7f0e; stroke: #ff7f0e"/>
     <use xlink:href="#m4637223e97" x="262.872083" y="276.796087" style="fill: #ff7f0e; stroke: #ff7f0e"/>
     <use xlink:href="#m4637223e97" x="266.981634" y="276.796089" style="fill: #ff7f0e; stroke: #ff7f0e"/>
     <use xlink:href="#m4637223e97" x="271.091185" y="276.796091" style="fill: #ff7f0e; stroke: #ff7f0e"/>
     <use xlink:href="#m4637223e97" x="275.200736" y="276.796095" style="fill: #ff7f0e; stroke: #ff7f0e"/>
     <use xlink:href="#m4637223e97" x="279.310288" y="276.796105" style="fill: #ff7f0e; stroke: #ff7f0e"/>
     <use xlink:href="#m4637223e97" x="283.419839" y="276.796128" style="fill: #ff7f0e; stroke: #ff7f0e"/>
     <use xlink:href="#m4637223e97" x="287.52939" y="276.796178" style="fill: #ff7f0e; stroke: #ff7f0e"/>
     <use xlink:href="#m4637223e97" x="291.638941" y="276.796287" style="fill: #ff7f0e; stroke: #ff7f0e"/>
     <use xlink:href="#m4637223e97" x="295.748493" y="276.796516" style="fill: #ff7f0e; stroke: #ff7f0e"/>
     <use xlink:href="#m4637223e97" x="299.858044" y="276.796984" style="fill: #ff7f0e; stroke: #ff7f0e"/>
     <use xlink:href="#m4637223e97" x="303.967595" y="276.797916" style="fill: #ff7f0e; stroke: #ff7f0e"/>
     <use xlink:href="#m4637223e97" x="308.077146" y="276.799716" style="fill: #ff7f0e; stroke: #ff7f0e"/>
     <use xlink:href="#m4637223e97" x="312.186697" y="276.803094" style="fill: #ff7f0e; stroke: #ff7f0e"/>
     <use xlink:href="#m4637223e97" x="316.296249" y="276.809258" style="fill: #ff7f0e; stroke: #ff7f0e"/>
     <use xlink:href="#m4637223e97" x="320.4058" y="276.820184" style="fill: #ff7f0e; stroke: #ff7f0e"/>
     <use xlink:href="#m4637223e97" x="324.515351" y="276.839006" style="fill: #ff7f0e; stroke: #ff7f0e"/>
     <use xlink:href="#m4637223e97" x="328.624902" y="276.870516" style="fill: #ff7f0e; stroke: #ff7f0e"/>
     <use xlink:href="#m4637223e97" x="332.734453" y="276.921778" style="fill: #ff7f0e; stroke: #ff7f0e"/>
     <use xlink:href="#m4637223e97" x="336.844005" y="277.002818" style="fill: #ff7f0e; stroke: #ff7f0e"/>
     <use xlink:href="#m4637223e97" x="340.953556" y="277.127318" style="fill: #ff7f0e; stroke: #ff7f0e"/>
     <use xlink:href="#m4637223e97" x="345.063107" y="277.313186" style="fill: #ff7f0e; stroke: #ff7f0e"/>
     <use xlink:href="#m4637223e97" x="349.172658" y="277.582842" style="fill: #ff7f0e; stroke: #ff7f0e"/>
     <use xlink:href="#m4637223e97" x="353.282209" y="277.963015" style="fill: #ff7f0e; stroke: #ff7f0e"/>
     <use xlink:href="#m4637223e97" x="357.391761" y="278.483873" style="fill: #ff7f0e; stroke: #ff7f0e"/>
     <use xlink:href="#m4637223e97" x="361.501312" y="279.17734" style="fill: #ff7f0e; stroke: #ff7f0e"/>
     <use xlink:href="#m4637223e97" x="365.610863" y="280.074564" style="fill: #ff7f0e; stroke: #ff7f0e"/>
     <use xlink:href="#m4637223e97" x="369.720414" y="281.202654" style="fill: #ff7f0e; stroke: #ff7f0e"/>
     <use xlink:href="#m4637223e97" x="373.829965" y="282.580994" style="fill: #ff7f0e; stroke: #ff7f0e"/>
     <use xlink:href="#m4637223e97" x="377.939517" y="284.217576" style="fill: #ff7f0e; stroke: #ff7f0e"/>
     <use xlink:href="#m4637223e97" x="382.049068" y="286.105952" style="fill: #ff7f0e; stroke: #ff7f0e"/>
     <use xlink:href="#m4637223e97" x="386.158619" y="288.223383" style="fill: #ff7f0e; stroke: #ff7f0e"/>
     <use xlink:href="#m4637223e97" x="390.26817" y="290.530658" style="fill: #ff7f0e; stroke: #ff7f0e"/>
     <use xlink:href="#m4637223e97" x="394.377722" y="292.97386" style="fill: #ff7f0e; stroke: #ff7f0e"/>
     <use xlink:href="#m4637223e97" x="398.487273" y="295.488" style="fill: #ff7f0e; stroke: #ff7f0e"/>
    </g>
   </g>
   <g id="patch_3">
    <path d="M 57.6 307.584 
L 57.6 41.472 
" style="fill: none; stroke: #000000; stroke-width: 3; stroke-linejoin: miter; stroke-linecap: square"/>
   </g>
   <g id="patch_4">
    <path d="M 414.72 307.584 
L 414.72 41.472 
" style="fill: none; stroke: #000000; stroke-width: 3; stroke-linejoin: miter; stroke-linecap: square"/>
   </g>
   <g id="patch_5">
    <path d="M 57.6 307.584 
L 414.72 307.584 
" style="fill: none; stroke: #000000; stroke-width: 3; stroke-linejoin: miter; stroke-linecap: square"/>
   </g>
   <g id="patch_6">
    <path d="M 57.6 41.472 
L 414.72 41.472 
" style="fill: none; stroke: #000000; stroke-width: 3; stroke-linejoin: miter; stroke-linecap: square"/>
   </g>
   <g id="legend_1">
    <g id="patch_7">
     <path d="M 329.759063 64.150125 
L 407.72 64.150125 
Q 409.72 64.150125 409.72 62.150125 
L 409.72 48.472 
Q 409.72 46.472 407.72 46.472 
L 329.759063 46.472 
Q 327.759063 46.472 327.759063 48.472 
L 327.759063 62.150125 
Q 327.759063 64.150125 329.759063 64.150125 
z
" style="fill: #ffffff; opacity: 0.8; stroke: #cccccc; stroke-linejoin: miter"/>
    </g>
    <g id="line2d_17">
     <path d="M 331.759063 54.570438 
L 341.759063 54.570438 
L 351.759063 54.570438 
" style="fill: none; stroke: #1f77b4; stroke-width: 1.5; stroke-linecap: square"/>
     <g>
      <use xlink:href="#m88238785a4" x="341.759063" y="54.570438" style="fill: #1f77b4; stroke: #1f77b4"/>
     </g>
    </g>
    <g id="text_17">
     <!-- 11.0 GHz -->
     <g transform="translate(359.759063 58.070438) scale(0.1 -0.1)">
      <defs>
       <path id="DejaVuSans-47" d="M 3809 666 
L 3809 1919 
L 2778 1919 
L 2778 2438 
L 4434 2438 
L 4434 434 
Q 4069 175 3628 42 
Q 3188 -91 2688 -91 
Q 1594 -91 976 548 
Q 359 1188 359 2328 
Q 359 3472 976 4111 
Q 1594 4750 2688 4750 
Q 3144 4750 3555 4637 
Q 3966 4525 4313 4306 
L 4313 3634 
Q 3963 3931 3569 4081 
Q 3175 4231 2741 4231 
Q 1884 4231 1454 3753 
Q 1025 3275 1025 2328 
Q 1025 1384 1454 906 
Q 1884 428 2741 428 
Q 3075 428 3337 486 
Q 3600 544 3809 666 
z
" transform="scale(0.015625)"/>
       <path id="DejaVuSans-48" d="M 628 4666 
L 1259 4666 
L 1259 2753 
L 3553 2753 
L 3553 4666 
L 4184 4666 
L 4184 0 
L 3553 0 
L 3553 2222 
L 1259 2222 
L 1259 0 
L 628 0 
L 628 4666 
z
" transform="scale(0.015625)"/>
       <path id="DejaVuSans-7a" d="M 353 3500 
L 3084 3500 
L 3084 2975 
L 922 459 
L 3084 459 
L 3084 0 
L 275 0 
L 275 525 
L 2438 3041 
L 353 3041 
L 353 3500 
z
" transform="scale(0.015625)"/>
      </defs>
      <use xlink:href="#DejaVuSans-31"/>
      <use xlink:href="#DejaVuSans-31" x="63.623047"/>
      <use xlink:href="#DejaVuSans-2e" x="127.246094"/>
      <use xlink:href="#DejaVuSans-30" x="159.033203"/>
      <use xlink:href="#DejaVuSans-20" x="222.65625"/>
      <use xlink:href="#DejaVuSans-47" x="254.443359"/>
      <use xlink:href="#DejaVuSans-48" x="331.933594"/>
      <use xlink:href="#DejaVuSans-7a" x="407.128906"/>
     </g>
    </g>
   </g>
  </g>
 </g>
 <defs>
  <clipPath id="paef2a7de65">
   <rect x="57.6" y="41.472" width="357.12" height="266.112"/>
  </clipPath>
 </defs>
</svg>
