<?xml version="1.0" encoding="utf-8" standalone="no"?>
<!DOCTYPE svg PUBLIC "-//W3C//DTD SVG 1.1//EN"
  "http://www.w3.org/Graphics/SVG/1.1/DTD/svg11.dtd">
<svg xmlns:xlink="http://www.w3.org/1999/xlink" width="460.8pt" height="345.6pt" viewBox="0 0 460.8 345.6" xmlns="http://www.w3.org/2000/svg" version="1.1">
 <metadata>
  <rdf:RDF xmlns:dc="http://purl.org/dc/elements/1.1/" xmlns:cc="http://creativecommons.org/ns#" xmlns:rdf="http://www.w3.org/1999/02/22-rdf-syntax-ns#">
   <cc:Work>
    <dc:type rdf:resource="http://purl.org/dc/dcmitype/StillImage"/>
    <dc:date>2024-03-28T16:28:03.148862</dc:date>
    <dc:format>image/svg+xml</dc:format>
    <dc:creator>
     <cc:Agent>
      <dc:title>Matplotlib v3.7.2, https://matplotlib.org/</dc:title>
     </cc:Agent>
    </dc:creator>
   </cc:Work>
  </rdf:RDF>
 </metadata>
 <defs>
  <style type="text/css">*{stroke-linejoin: round; stroke-linecap: butt}</style>
 </defs>
 <g id="figure_1">
  <g id="patch_1">
   <path d="M 0 345.6 
L 460.8 345.6 
L 460.8 0 
L 0 0 
z
" style="fill: #ffffff"/>
  </g>
  <g id="axes_1">
   <g id="patch_2">
    <path d="M 57.6 307.584 
L 414.72 307.584 
L 414.72 41.472 
L 57.6 41.472 
z
" style="fill: #ffffff"/>
   </g>
   <g id="matplotlib.axis_1">
    <g id="xtick_1">
     <g id="line2d_1">
      <defs>
       <path id="mb9fbce8d0b" d="M 0 0 
L 0 3.5 
" style="stroke: #000000; stroke-width: 0.8"/>
      </defs>
      <g>
       <use xlink:href="#mb9fbce8d0b" x="69.723176" y="307.584" style="stroke: #000000; stroke-width: 0.8"/>
      </g>
     </g>
     <g id="text_1">
      <!-- 0.0 -->
      <g transform="translate(61.771614 322.182437) scale(0.1 -0.1)">
       <defs>
        <path id="DejaVuSans-30" d="M 2034 4250 
Q 1547 4250 1301 3770 
Q 1056 3291 1056 2328 
Q 1056 1369 1301 889 
Q 1547 409 2034 409 
Q 2525 409 2770 889 
Q 3016 1369 3016 2328 
Q 3016 3291 2770 3770 
Q 2525 4250 2034 4250 
z
M 2034 4750 
Q 2819 4750 3233 4129 
Q 3647 3509 3647 2328 
Q 3647 1150 3233 529 
Q 2819 -91 2034 -91 
Q 1250 -91 836 529 
Q 422 1150 422 2328 
Q 422 3509 836 4129 
Q 1250 4750 2034 4750 
z
" transform="scale(0.015625)"/>
        <path id="DejaVuSans-2e" d="M 684 794 
L 1344 794 
L 1344 0 
L 684 0 
L 684 794 
z
" transform="scale(0.015625)"/>
       </defs>
       <use xlink:href="#DejaVuSans-30"/>
       <use xlink:href="#DejaVuSans-2e" x="63.623047"/>
       <use xlink:href="#DejaVuSans-30" x="95.410156"/>
      </g>
     </g>
    </g>
    <g id="xtick_2">
     <g id="line2d_2">
      <g>
       <use xlink:href="#mb9fbce8d0b" x="110.437085" y="307.584" style="stroke: #000000; stroke-width: 0.8"/>
      </g>
     </g>
     <g id="text_2">
      <!-- 0.5 -->
      <g transform="translate(102.485522 322.182437) scale(0.1 -0.1)">
       <defs>
        <path id="DejaVuSans-35" d="M 691 4666 
L 3169 4666 
L 3169 4134 
L 1269 4134 
L 1269 2991 
Q 1406 3038 1543 3061 
Q 1681 3084 1819 3084 
Q 2600 3084 3056 2656 
Q 3513 2228 3513 1497 
Q 3513 744 3044 326 
Q 2575 -91 1722 -91 
Q 1428 -91 1123 -41 
Q 819 9 494 109 
L 494 744 
Q 775 591 1075 516 
Q 1375 441 1709 441 
Q 2250 441 2565 725 
Q 2881 1009 2881 1497 
Q 2881 1984 2565 2268 
Q 2250 2553 1709 2553 
Q 1456 2553 1204 2497 
Q 953 2441 691 2322 
L 691 4666 
z
" transform="scale(0.015625)"/>
       </defs>
       <use xlink:href="#DejaVuSans-30"/>
       <use xlink:href="#DejaVuSans-2e" x="63.623047"/>
       <use xlink:href="#DejaVuSans-35" x="95.410156"/>
      </g>
     </g>
    </g>
    <g id="xtick_3">
     <g id="line2d_3">
      <g>
       <use xlink:href="#mb9fbce8d0b" x="151.150994" y="307.584" style="stroke: #000000; stroke-width: 0.8"/>
      </g>
     </g>
     <g id="text_3">
      <!-- 1.0 -->
      <g transform="translate(143.199431 322.182437) scale(0.1 -0.1)">
       <defs>
        <path id="DejaVuSans-31" d="M 794 531 
L 1825 531 
L 1825 4091 
L 703 3866 
L 703 4441 
L 1819 4666 
L 2450 4666 
L 2450 531 
L 3481 531 
L 3481 0 
L 794 0 
L 794 531 
z
" transform="scale(0.015625)"/>
       </defs>
       <use xlink:href="#DejaVuSans-31"/>
       <use xlink:href="#DejaVuSans-2e" x="63.623047"/>
       <use xlink:href="#DejaVuSans-30" x="95.410156"/>
      </g>
     </g>
    </g>
    <g id="xtick_4">
     <g id="line2d_4">
      <g>
       <use xlink:href="#mb9fbce8d0b" x="191.864902" y="307.584" style="stroke: #000000; stroke-width: 0.8"/>
      </g>
     </g>
     <g id="text_4">
      <!-- 1.5 -->
      <g transform="translate(183.91334 322.182437) scale(0.1 -0.1)">
       <use xlink:href="#DejaVuSans-31"/>
       <use xlink:href="#DejaVuSans-2e" x="63.623047"/>
       <use xlink:href="#DejaVuSans-35" x="95.410156"/>
      </g>
     </g>
    </g>
    <g id="xtick_5">
     <g id="line2d_5">
      <g>
       <use xlink:href="#mb9fbce8d0b" x="232.578811" y="307.584" style="stroke: #000000; stroke-width: 0.8"/>
      </g>
     </g>
     <g id="text_5">
      <!-- 2.0 -->
      <g transform="translate(224.627249 322.182437) scale(0.1 -0.1)">
       <defs>
        <path id="DejaVuSans-32" d="M 1228 531 
L 3431 531 
L 3431 0 
L 469 0 
L 469 531 
Q 828 903 1448 1529 
Q 2069 2156 2228 2338 
Q 2531 2678 2651 2914 
Q 2772 3150 2772 3378 
Q 2772 3750 2511 3984 
Q 2250 4219 1831 4219 
Q 1534 4219 1204 4116 
Q 875 4013 500 3803 
L 500 4441 
Q 881 4594 1212 4672 
Q 1544 4750 1819 4750 
Q 2544 4750 2975 4387 
Q 3406 4025 3406 3419 
Q 3406 3131 3298 2873 
Q 3191 2616 2906 2266 
Q 2828 2175 2409 1742 
Q 1991 1309 1228 531 
z
" transform="scale(0.015625)"/>
       </defs>
       <use xlink:href="#DejaVuSans-32"/>
       <use xlink:href="#DejaVuSans-2e" x="63.623047"/>
       <use xlink:href="#DejaVuSans-30" x="95.410156"/>
      </g>
     </g>
    </g>
    <g id="xtick_6">
     <g id="line2d_6">
      <g>
       <use xlink:href="#mb9fbce8d0b" x="273.29272" y="307.584" style="stroke: #000000; stroke-width: 0.8"/>
      </g>
     </g>
     <g id="text_6">
      <!-- 2.5 -->
      <g transform="translate(265.341157 322.182437) scale(0.1 -0.1)">
       <use xlink:href="#DejaVuSans-32"/>
       <use xlink:href="#DejaVuSans-2e" x="63.623047"/>
       <use xlink:href="#DejaVuSans-35" x="95.410156"/>
      </g>
     </g>
    </g>
    <g id="xtick_7">
     <g id="line2d_7">
      <g>
       <use xlink:href="#mb9fbce8d0b" x="314.006629" y="307.584" style="stroke: #000000; stroke-width: 0.8"/>
      </g>
     </g>
     <g id="text_7">
      <!-- 3.0 -->
      <g transform="translate(306.055066 322.182437) scale(0.1 -0.1)">
       <defs>
        <path id="DejaVuSans-33" d="M 2597 2516 
Q 3050 2419 3304 2112 
Q 3559 1806 3559 1356 
Q 3559 666 3084 287 
Q 2609 -91 1734 -91 
Q 1441 -91 1130 -33 
Q 819 25 488 141 
L 488 750 
Q 750 597 1062 519 
Q 1375 441 1716 441 
Q 2309 441 2620 675 
Q 2931 909 2931 1356 
Q 2931 1769 2642 2001 
Q 2353 2234 1838 2234 
L 1294 2234 
L 1294 2753 
L 1863 2753 
Q 2328 2753 2575 2939 
Q 2822 3125 2822 3475 
Q 2822 3834 2567 4026 
Q 2313 4219 1838 4219 
Q 1578 4219 1281 4162 
Q 984 4106 628 3988 
L 628 4550 
Q 988 4650 1302 4700 
Q 1616 4750 1894 4750 
Q 2613 4750 3031 4423 
Q 3450 4097 3450 3541 
Q 3450 3153 3228 2886 
Q 3006 2619 2597 2516 
z
" transform="scale(0.015625)"/>
       </defs>
       <use xlink:href="#DejaVuSans-33"/>
       <use xlink:href="#DejaVuSans-2e" x="63.623047"/>
       <use xlink:href="#DejaVuSans-30" x="95.410156"/>
      </g>
     </g>
    </g>
    <g id="xtick_8">
     <g id="line2d_8">
      <g>
       <use xlink:href="#mb9fbce8d0b" x="354.720538" y="307.584" style="stroke: #000000; stroke-width: 0.8"/>
      </g>
     </g>
     <g id="text_8">
      <!-- 3.5 -->
      <g transform="translate(346.768975 322.182437) scale(0.1 -0.1)">
       <use xlink:href="#DejaVuSans-33"/>
       <use xlink:href="#DejaVuSans-2e" x="63.623047"/>
       <use xlink:href="#DejaVuSans-35" x="95.410156"/>
      </g>
     </g>
    </g>
    <g id="xtick_9">
     <g id="line2d_9">
      <g>
       <use xlink:href="#mb9fbce8d0b" x="395.434446" y="307.584" style="stroke: #000000; stroke-width: 0.8"/>
      </g>
     </g>
     <g id="text_9">
      <!-- 4.0 -->
      <g transform="translate(387.482884 322.182437) scale(0.1 -0.1)">
       <defs>
        <path id="DejaVuSans-34" d="M 2419 4116 
L 825 1625 
L 2419 1625 
L 2419 4116 
z
M 2253 4666 
L 3047 4666 
L 3047 1625 
L 3713 1625 
L 3713 1100 
L 3047 1100 
L 3047 0 
L 2419 0 
L 2419 1100 
L 313 1100 
L 313 1709 
L 2253 4666 
z
" transform="scale(0.015625)"/>
       </defs>
       <use xlink:href="#DejaVuSans-34"/>
       <use xlink:href="#DejaVuSans-2e" x="63.623047"/>
       <use xlink:href="#DejaVuSans-30" x="95.410156"/>
      </g>
     </g>
    </g>
    <g id="text_10">
     <!-- Distance ($\mu$m) -->
     <g transform="translate(186.53 338.902125) scale(0.14 -0.14)">
      <defs>
       <path id="DejaVuSans-44" d="M 1259 4147 
L 1259 519 
L 2022 519 
Q 2988 519 3436 956 
Q 3884 1394 3884 2338 
Q 3884 3275 3436 3711 
Q 2988 4147 2022 4147 
L 1259 4147 
z
M 628 4666 
L 1925 4666 
Q 3281 4666 3915 4102 
Q 4550 3538 4550 2338 
Q 4550 1131 3912 565 
Q 3275 0 1925 0 
L 628 0 
L 628 4666 
z
" transform="scale(0.015625)"/>
       <path id="DejaVuSans-69" d="M 603 3500 
L 1178 3500 
L 1178 0 
L 603 0 
L 603 3500 
z
M 603 4863 
L 1178 4863 
L 1178 4134 
L 603 4134 
L 603 4863 
z
" transform="scale(0.015625)"/>
       <path id="DejaVuSans-73" d="M 2834 3397 
L 2834 2853 
Q 2591 2978 2328 3040 
Q 2066 3103 1784 3103 
Q 1356 3103 1142 2972 
Q 928 2841 928 2578 
Q 928 2378 1081 2264 
Q 1234 2150 1697 2047 
L 1894 2003 
Q 2506 1872 2764 1633 
Q 3022 1394 3022 966 
Q 3022 478 2636 193 
Q 2250 -91 1575 -91 
Q 1294 -91 989 -36 
Q 684 19 347 128 
L 347 722 
Q 666 556 975 473 
Q 1284 391 1588 391 
Q 1994 391 2212 530 
Q 2431 669 2431 922 
Q 2431 1156 2273 1281 
Q 2116 1406 1581 1522 
L 1381 1569 
Q 847 1681 609 1914 
Q 372 2147 372 2553 
Q 372 3047 722 3315 
Q 1072 3584 1716 3584 
Q 2034 3584 2315 3537 
Q 2597 3491 2834 3397 
z
" transform="scale(0.015625)"/>
       <path id="DejaVuSans-74" d="M 1172 4494 
L 1172 3500 
L 2356 3500 
L 2356 3053 
L 1172 3053 
L 1172 1153 
Q 1172 725 1289 603 
Q 1406 481 1766 481 
L 2356 481 
L 2356 0 
L 1766 0 
Q 1100 0 847 248 
Q 594 497 594 1153 
L 594 3053 
L 172 3053 
L 172 3500 
L 594 3500 
L 594 4494 
L 1172 4494 
z
" transform="scale(0.015625)"/>
       <path id="DejaVuSans-61" d="M 2194 1759 
Q 1497 1759 1228 1600 
Q 959 1441 959 1056 
Q 959 750 1161 570 
Q 1363 391 1709 391 
Q 2188 391 2477 730 
Q 2766 1069 2766 1631 
L 2766 1759 
L 2194 1759 
z
M 3341 1997 
L 3341 0 
L 2766 0 
L 2766 531 
Q 2569 213 2275 61 
Q 1981 -91 1556 -91 
Q 1019 -91 701 211 
Q 384 513 384 1019 
Q 384 1609 779 1909 
Q 1175 2209 1959 2209 
L 2766 2209 
L 2766 2266 
Q 2766 2663 2505 2880 
Q 2244 3097 1772 3097 
Q 1472 3097 1187 3025 
Q 903 2953 641 2809 
L 641 3341 
Q 956 3463 1253 3523 
Q 1550 3584 1831 3584 
Q 2591 3584 2966 3190 
Q 3341 2797 3341 1997 
z
" transform="scale(0.015625)"/>
       <path id="DejaVuSans-6e" d="M 3513 2113 
L 3513 0 
L 2938 0 
L 2938 2094 
Q 2938 2591 2744 2837 
Q 2550 3084 2163 3084 
Q 1697 3084 1428 2787 
Q 1159 2491 1159 1978 
L 1159 0 
L 581 0 
L 581 3500 
L 1159 3500 
L 1159 2956 
Q 1366 3272 1645 3428 
Q 1925 3584 2291 3584 
Q 2894 3584 3203 3211 
Q 3513 2838 3513 2113 
z
" transform="scale(0.015625)"/>
       <path id="DejaVuSans-63" d="M 3122 3366 
L 3122 2828 
Q 2878 2963 2633 3030 
Q 2388 3097 2138 3097 
Q 1578 3097 1268 2742 
Q 959 2388 959 1747 
Q 959 1106 1268 751 
Q 1578 397 2138 397 
Q 2388 397 2633 464 
Q 2878 531 3122 666 
L 3122 134 
Q 2881 22 2623 -34 
Q 2366 -91 2075 -91 
Q 1284 -91 818 406 
Q 353 903 353 1747 
Q 353 2603 823 3093 
Q 1294 3584 2113 3584 
Q 2378 3584 2631 3529 
Q 2884 3475 3122 3366 
z
" transform="scale(0.015625)"/>
       <path id="DejaVuSans-65" d="M 3597 1894 
L 3597 1613 
L 953 1613 
Q 991 1019 1311 708 
Q 1631 397 2203 397 
Q 2534 397 2845 478 
Q 3156 559 3463 722 
L 3463 178 
Q 3153 47 2828 -22 
Q 2503 -91 2169 -91 
Q 1331 -91 842 396 
Q 353 884 353 1716 
Q 353 2575 817 3079 
Q 1281 3584 2069 3584 
Q 2775 3584 3186 3129 
Q 3597 2675 3597 1894 
z
M 3022 2063 
Q 3016 2534 2758 2815 
Q 2500 3097 2075 3097 
Q 1594 3097 1305 2825 
Q 1016 2553 972 2059 
L 3022 2063 
z
" transform="scale(0.015625)"/>
       <path id="DejaVuSans-20" transform="scale(0.015625)"/>
       <path id="DejaVuSans-28" d="M 1984 4856 
Q 1566 4138 1362 3434 
Q 1159 2731 1159 2009 
Q 1159 1288 1364 580 
Q 1569 -128 1984 -844 
L 1484 -844 
Q 1016 -109 783 600 
Q 550 1309 550 2009 
Q 550 2706 781 3412 
Q 1013 4119 1484 4856 
L 1984 4856 
z
" transform="scale(0.015625)"/>
       <path id="DejaVuSans-Oblique-3bc" d="M -84 -1331 
L 856 3500 
L 1434 3500 
L 1009 1322 
Q 997 1256 987 1175 
Q 978 1094 978 1013 
Q 978 722 1161 565 
Q 1344 409 1684 409 
Q 2147 409 2431 671 
Q 2716 934 2816 1459 
L 3213 3500 
L 3788 3500 
L 3266 809 
Q 3253 750 3248 706 
Q 3244 663 3244 628 
Q 3244 531 3283 486 
Q 3322 441 3406 441 
Q 3438 441 3492 456 
Q 3547 472 3647 513 
L 3559 50 
Q 3422 -19 3297 -55 
Q 3172 -91 3053 -91 
Q 2847 -91 2730 40 
Q 2613 172 2613 403 
Q 2438 153 2195 31 
Q 1953 -91 1625 -91 
Q 1334 -91 1117 43 
Q 900 178 831 397 
L 494 -1331 
L -84 -1331 
z
" transform="scale(0.015625)"/>
       <path id="DejaVuSans-6d" d="M 3328 2828 
Q 3544 3216 3844 3400 
Q 4144 3584 4550 3584 
Q 5097 3584 5394 3201 
Q 5691 2819 5691 2113 
L 5691 0 
L 5113 0 
L 5113 2094 
Q 5113 2597 4934 2840 
Q 4756 3084 4391 3084 
Q 3944 3084 3684 2787 
Q 3425 2491 3425 1978 
L 3425 0 
L 2847 0 
L 2847 2094 
Q 2847 2600 2669 2842 
Q 2491 3084 2119 3084 
Q 1678 3084 1418 2786 
Q 1159 2488 1159 1978 
L 1159 0 
L 581 0 
L 581 3500 
L 1159 3500 
L 1159 2956 
Q 1356 3278 1631 3431 
Q 1906 3584 2284 3584 
Q 2666 3584 2933 3390 
Q 3200 3197 3328 2828 
z
" transform="scale(0.015625)"/>
       <path id="DejaVuSans-29" d="M 513 4856 
L 1013 4856 
Q 1481 4119 1714 3412 
Q 1947 2706 1947 2009 
Q 1947 1309 1714 600 
Q 1481 -109 1013 -844 
L 513 -844 
Q 928 -128 1133 580 
Q 1338 1288 1338 2009 
Q 1338 2731 1133 3434 
Q 928 4138 513 4856 
z
" transform="scale(0.015625)"/>
      </defs>
      <use xlink:href="#DejaVuSans-44" transform="translate(0 0.015625)"/>
      <use xlink:href="#DejaVuSans-69" transform="translate(77.001953 0.015625)"/>
      <use xlink:href="#DejaVuSans-73" transform="translate(104.785156 0.015625)"/>
      <use xlink:href="#DejaVuSans-74" transform="translate(156.884766 0.015625)"/>
      <use xlink:href="#DejaVuSans-61" transform="translate(196.09375 0.015625)"/>
      <use xlink:href="#DejaVuSans-6e" transform="translate(257.373047 0.015625)"/>
      <use xlink:href="#DejaVuSans-63" transform="translate(320.751953 0.015625)"/>
      <use xlink:href="#DejaVuSans-65" transform="translate(375.732422 0.015625)"/>
      <use xlink:href="#DejaVuSans-20" transform="translate(437.255859 0.015625)"/>
      <use xlink:href="#DejaVuSans-28" transform="translate(469.042969 0.015625)"/>
      <use xlink:href="#DejaVuSans-Oblique-3bc" transform="translate(508.056641 0.015625)"/>
      <use xlink:href="#DejaVuSans-6d" transform="translate(571.679688 0.015625)"/>
      <use xlink:href="#DejaVuSans-29" transform="translate(669.091797 0.015625)"/>
     </g>
    </g>
   </g>
   <g id="matplotlib.axis_2">
    <g id="ytick_1">
     <g id="line2d_10">
      <defs>
       <path id="ma167ae2afd" d="M 0 0 
L -3.5 0 
" style="stroke: #000000; stroke-width: 0.8"/>
      </defs>
      <g>
       <use xlink:href="#ma167ae2afd" x="57.6" y="294.567707" style="stroke: #000000; stroke-width: 0.8"/>
      </g>
     </g>
     <g id="text_11">
      <!-- 0.00000 -->
      <g transform="translate(9.246875 298.366926) scale(0.1 -0.1)">
       <use xlink:href="#DejaVuSans-30"/>
       <use xlink:href="#DejaVuSans-2e" x="63.623047"/>
       <use xlink:href="#DejaVuSans-30" x="95.410156"/>
       <use xlink:href="#DejaVuSans-30" x="159.033203"/>
       <use xlink:href="#DejaVuSans-30" x="222.65625"/>
       <use xlink:href="#DejaVuSans-30" x="286.279297"/>
       <use xlink:href="#DejaVuSans-30" x="349.902344"/>
      </g>
     </g>
    </g>
    <g id="ytick_2">
     <g id="line2d_11">
      <g>
       <use xlink:href="#ma167ae2afd" x="57.6" y="262.970567" style="stroke: #000000; stroke-width: 0.8"/>
      </g>
     </g>
     <g id="text_12">
      <!-- 0.00025 -->
      <g transform="translate(9.246875 266.769785) scale(0.1 -0.1)">
       <use xlink:href="#DejaVuSans-30"/>
       <use xlink:href="#DejaVuSans-2e" x="63.623047"/>
       <use xlink:href="#DejaVuSans-30" x="95.410156"/>
       <use xlink:href="#DejaVuSans-30" x="159.033203"/>
       <use xlink:href="#DejaVuSans-30" x="222.65625"/>
       <use xlink:href="#DejaVuSans-32" x="286.279297"/>
       <use xlink:href="#DejaVuSans-35" x="349.902344"/>
      </g>
     </g>
    </g>
    <g id="ytick_3">
     <g id="line2d_12">
      <g>
       <use xlink:href="#ma167ae2afd" x="57.6" y="231.373426" style="stroke: #000000; stroke-width: 0.8"/>
      </g>
     </g>
     <g id="text_13">
      <!-- 0.00050 -->
      <g transform="translate(9.246875 235.172645) scale(0.1 -0.1)">
       <use xlink:href="#DejaVuSans-30"/>
       <use xlink:href="#DejaVuSans-2e" x="63.623047"/>
       <use xlink:href="#DejaVuSans-30" x="95.410156"/>
       <use xlink:href="#DejaVuSans-30" x="159.033203"/>
       <use xlink:href="#DejaVuSans-30" x="222.65625"/>
       <use xlink:href="#DejaVuSans-35" x="286.279297"/>
       <use xlink:href="#DejaVuSans-30" x="349.902344"/>
      </g>
     </g>
    </g>
    <g id="ytick_4">
     <g id="line2d_13">
      <g>
       <use xlink:href="#ma167ae2afd" x="57.6" y="199.776286" style="stroke: #000000; stroke-width: 0.8"/>
      </g>
     </g>
     <g id="text_14">
      <!-- 0.00075 -->
      <g transform="translate(9.246875 203.575504) scale(0.1 -0.1)">
       <defs>
        <path id="DejaVuSans-37" d="M 525 4666 
L 3525 4666 
L 3525 4397 
L 1831 0 
L 1172 0 
L 2766 4134 
L 525 4134 
L 525 4666 
z
" transform="scale(0.015625)"/>
       </defs>
       <use xlink:href="#DejaVuSans-30"/>
       <use xlink:href="#DejaVuSans-2e" x="63.623047"/>
       <use xlink:href="#DejaVuSans-30" x="95.410156"/>
       <use xlink:href="#DejaVuSans-30" x="159.033203"/>
       <use xlink:href="#DejaVuSans-30" x="222.65625"/>
       <use xlink:href="#DejaVuSans-37" x="286.279297"/>
       <use xlink:href="#DejaVuSans-35" x="349.902344"/>
      </g>
     </g>
    </g>
    <g id="ytick_5">
     <g id="line2d_14">
      <g>
       <use xlink:href="#ma167ae2afd" x="57.6" y="168.179145" style="stroke: #000000; stroke-width: 0.8"/>
      </g>
     </g>
     <g id="text_15">
      <!-- 0.00100 -->
      <g transform="translate(9.246875 171.978364) scale(0.1 -0.1)">
       <use xlink:href="#DejaVuSans-30"/>
       <use xlink:href="#DejaVuSans-2e" x="63.623047"/>
       <use xlink:href="#DejaVuSans-30" x="95.410156"/>
       <use xlink:href="#DejaVuSans-30" x="159.033203"/>
       <use xlink:href="#DejaVuSans-31" x="222.65625"/>
       <use xlink:href="#DejaVuSans-30" x="286.279297"/>
       <use xlink:href="#DejaVuSans-30" x="349.902344"/>
      </g>
     </g>
    </g>
    <g id="ytick_6">
     <g id="line2d_15">
      <g>
       <use xlink:href="#ma167ae2afd" x="57.6" y="136.582004" style="stroke: #000000; stroke-width: 0.8"/>
      </g>
     </g>
     <g id="text_16">
      <!-- 0.00125 -->
      <g transform="translate(9.246875 140.381223) scale(0.1 -0.1)">
       <use xlink:href="#DejaVuSans-30"/>
       <use xlink:href="#DejaVuSans-2e" x="63.623047"/>
       <use xlink:href="#DejaVuSans-30" x="95.410156"/>
       <use xlink:href="#DejaVuSans-30" x="159.033203"/>
       <use xlink:href="#DejaVuSans-31" x="222.65625"/>
       <use xlink:href="#DejaVuSans-32" x="286.279297"/>
       <use xlink:href="#DejaVuSans-35" x="349.902344"/>
      </g>
     </g>
    </g>
    <g id="ytick_7">
     <g id="line2d_16">
      <g>
       <use xlink:href="#ma167ae2afd" x="57.6" y="104.984864" style="stroke: #000000; stroke-width: 0.8"/>
      </g>
     </g>
     <g id="text_17">
      <!-- 0.00150 -->
      <g transform="translate(9.246875 108.784083) scale(0.1 -0.1)">
       <use xlink:href="#DejaVuSans-30"/>
       <use xlink:href="#DejaVuSans-2e" x="63.623047"/>
       <use xlink:href="#DejaVuSans-30" x="95.410156"/>
       <use xlink:href="#DejaVuSans-30" x="159.033203"/>
       <use xlink:href="#DejaVuSans-31" x="222.65625"/>
       <use xlink:href="#DejaVuSans-35" x="286.279297"/>
       <use xlink:href="#DejaVuSans-30" x="349.902344"/>
      </g>
     </g>
    </g>
    <g id="ytick_8">
     <g id="line2d_17">
      <g>
       <use xlink:href="#ma167ae2afd" x="57.6" y="73.387723" style="stroke: #000000; stroke-width: 0.8"/>
      </g>
     </g>
     <g id="text_18">
      <!-- 0.00175 -->
      <g transform="translate(9.246875 77.186942) scale(0.1 -0.1)">
       <use xlink:href="#DejaVuSans-30"/>
       <use xlink:href="#DejaVuSans-2e" x="63.623047"/>
       <use xlink:href="#DejaVuSans-30" x="95.410156"/>
       <use xlink:href="#DejaVuSans-30" x="159.033203"/>
       <use xlink:href="#DejaVuSans-31" x="222.65625"/>
       <use xlink:href="#DejaVuSans-37" x="286.279297"/>
       <use xlink:href="#DejaVuSans-35" x="349.902344"/>
      </g>
     </g>
    </g>
    <g id="ytick_9">
     <g id="line2d_18">
      <g>
       <use xlink:href="#ma167ae2afd" x="57.6" y="41.790583" style="stroke: #000000; stroke-width: 0.8"/>
      </g>
     </g>
     <g id="text_19">
      <!-- 0.00200 -->
      <g transform="translate(9.246875 45.589802) scale(0.1 -0.1)">
       <use xlink:href="#DejaVuSans-30"/>
       <use xlink:href="#DejaVuSans-2e" x="63.623047"/>
       <use xlink:href="#DejaVuSans-30" x="95.410156"/>
       <use xlink:href="#DejaVuSans-30" x="159.033203"/>
       <use xlink:href="#DejaVuSans-32" x="222.65625"/>
       <use xlink:href="#DejaVuSans-30" x="286.279297"/>
       <use xlink:href="#DejaVuSans-30" x="349.902344"/>
      </g>
     </g>
    </g>
    <g id="text_20">
     <!-- Photon cts -->
     <g transform="translate(2.335312 211.396125) rotate(-90) scale(0.14 -0.14)">
      <defs>
       <path id="DejaVuSans-50" d="M 1259 4147 
L 1259 2394 
L 2053 2394 
Q 2494 2394 2734 2622 
Q 2975 2850 2975 3272 
Q 2975 3691 2734 3919 
Q 2494 4147 2053 4147 
L 1259 4147 
z
M 628 4666 
L 2053 4666 
Q 2838 4666 3239 4311 
Q 3641 3956 3641 3272 
Q 3641 2581 3239 2228 
Q 2838 1875 2053 1875 
L 1259 1875 
L 1259 0 
L 628 0 
L 628 4666 
z
" transform="scale(0.015625)"/>
       <path id="DejaVuSans-68" d="M 3513 2113 
L 3513 0 
L 2938 0 
L 2938 2094 
Q 2938 2591 2744 2837 
Q 2550 3084 2163 3084 
Q 1697 3084 1428 2787 
Q 1159 2491 1159 1978 
L 1159 0 
L 581 0 
L 581 4863 
L 1159 4863 
L 1159 2956 
Q 1366 3272 1645 3428 
Q 1925 3584 2291 3584 
Q 2894 3584 3203 3211 
Q 3513 2838 3513 2113 
z
" transform="scale(0.015625)"/>
       <path id="DejaVuSans-6f" d="M 1959 3097 
Q 1497 3097 1228 2736 
Q 959 2375 959 1747 
Q 959 1119 1226 758 
Q 1494 397 1959 397 
Q 2419 397 2687 759 
Q 2956 1122 2956 1747 
Q 2956 2369 2687 2733 
Q 2419 3097 1959 3097 
z
M 1959 3584 
Q 2709 3584 3137 3096 
Q 3566 2609 3566 1747 
Q 3566 888 3137 398 
Q 2709 -91 1959 -91 
Q 1206 -91 779 398 
Q 353 888 353 1747 
Q 353 2609 779 3096 
Q 1206 3584 1959 3584 
z
" transform="scale(0.015625)"/>
      </defs>
      <use xlink:href="#DejaVuSans-50"/>
      <use xlink:href="#DejaVuSans-68" x="60.302734"/>
      <use xlink:href="#DejaVuSans-6f" x="123.681641"/>
      <use xlink:href="#DejaVuSans-74" x="184.863281"/>
      <use xlink:href="#DejaVuSans-6f" x="224.072266"/>
      <use xlink:href="#DejaVuSans-6e" x="285.253906"/>
      <use xlink:href="#DejaVuSans-20" x="348.632812"/>
      <use xlink:href="#DejaVuSans-63" x="380.419922"/>
      <use xlink:href="#DejaVuSans-74" x="435.400391"/>
      <use xlink:href="#DejaVuSans-73" x="474.609375"/>
     </g>
    </g>
   </g>
   <g id="line2d_19">
    <path d="M 73.832727 294.567707 
L 77.942278 295.091979 
L 82.05183 293.517986 
L 86.161381 295.488 
L 90.270932 292.342549 
L 94.380483 292.328438 
L 98.490035 289.898655 
L 102.599586 288.777732 
L 106.709137 286.669469 
L 110.818688 281.158898 
L 114.928239 277.553689 
L 119.037791 269.599013 
L 123.147342 263.166403 
L 127.256893 252.30255 
L 131.366444 227.253949 
L 135.475995 223.886646 
L 139.585547 203.266504 
L 143.695098 172.812007 
L 147.804649 161.040573 
L 151.9142 146.304526 
L 156.023751 107.954119 
L 160.133303 73.105996 
L 164.242854 53.568 
L 168.352405 59.499627 
L 172.461956 54.130735 
L 176.571507 68.051828 
L 180.681059 100.24655 
L 184.79061 114.423761 
L 188.900161 139.674711 
L 193.009712 164.129098 
L 197.119264 181.028356 
L 201.228815 184.648812 
L 205.338366 209.564477 
L 209.447917 206.568846 
L 213.557468 216.355729 
L 217.66702 224.214972 
L 221.776571 225.384619 
L 225.886122 228.097014 
L 229.995673 239.089739 
L 234.105224 228.200796 
L 238.214776 237.613468 
L 242.324327 242.926827 
L 246.433878 244.443093 
L 250.543429 256.144516 
L 254.65298 260.269625 
L 258.762532 263.257921 
L 262.872083 268.599153 
L 266.981634 264.287589 
L 271.091185 267.345772 
L 275.200736 272.254872 
L 279.310288 268.221656 
L 283.419839 271.946323 
L 287.52939 270.075729 
L 291.638941 271.855243 
L 295.748493 272.117402 
L 299.858044 271.8846 
L 303.967595 272.216992 
L 308.077146 269.435031 
L 312.186697 274.648891 
L 316.296249 272.23033 
L 320.4058 272.433107 
L 324.515351 271.955486 
L 328.624902 273.40642 
L 332.734453 270.653501 
L 336.844005 271.386643 
L 340.953556 271.077666 
L 345.063107 273.107163 
L 349.172658 267.839891 
L 353.282209 267.480687 
L 357.391761 269.543414 
L 361.501312 269.549601 
L 365.610863 271.740707 
L 369.720414 267.19215 
L 373.829965 270.832214 
L 377.939517 271.830346 
L 382.049068 274.035309 
L 386.158619 274.338681 
L 390.26817 277.142581 
L 394.377722 275.662431 
L 398.487273 277.233656 
" clip-path="url(#p696c52fabf)" style="fill: none; stroke: #1f77b4; stroke-width: 1.5; stroke-linecap: square"/>
    <defs>
     <path id="m77f49b9da6" d="M 0 3 
C 0.795609 3 1.55874 2.683901 2.12132 2.12132 
C 2.683901 1.55874 3 0.795609 3 0 
C 3 -0.795609 2.683901 -1.55874 2.12132 -2.12132 
C 1.55874 -2.683901 0.795609 -3 0 -3 
C -0.795609 -3 -1.55874 -2.683901 -2.12132 -2.12132 
C -2.683901 -1.55874 -3 -0.795609 -3 0 
C -3 0.795609 -2.683901 1.55874 -2.12132 2.12132 
C -1.55874 2.683901 -0.795609 3 0 3 
z
" style="stroke: #1f77b4"/>
    </defs>
    <g clip-path="url(#p696c52fabf)">
     <use xlink:href="#m77f49b9da6" x="73.832727" y="294.567707" style="fill: #1f77b4; stroke: #1f77b4"/>
     <use xlink:href="#m77f49b9da6" x="77.942278" y="295.091979" style="fill: #1f77b4; stroke: #1f77b4"/>
     <use xlink:href="#m77f49b9da6" x="82.05183" y="293.517986" style="fill: #1f77b4; stroke: #1f77b4"/>
     <use xlink:href="#m77f49b9da6" x="86.161381" y="295.488" style="fill: #1f77b4; stroke: #1f77b4"/>
     <use xlink:href="#m77f49b9da6" x="90.270932" y="292.342549" style="fill: #1f77b4; stroke: #1f77b4"/>
     <use xlink:href="#m77f49b9da6" x="94.380483" y="292.328438" style="fill: #1f77b4; stroke: #1f77b4"/>
     <use xlink:href="#m77f49b9da6" x="98.490035" y="289.898655" style="fill: #1f77b4; stroke: #1f77b4"/>
     <use xlink:href="#m77f49b9da6" x="102.599586" y="288.777732" style="fill: #1f77b4; stroke: #1f77b4"/>
     <use xlink:href="#m77f49b9da6" x="106.709137" y="286.669469" style="fill: #1f77b4; stroke: #1f77b4"/>
     <use xlink:href="#m77f49b9da6" x="110.818688" y="281.158898" style="fill: #1f77b4; stroke: #1f77b4"/>
     <use xlink:href="#m77f49b9da6" x="114.928239" y="277.553689" style="fill: #1f77b4; stroke: #1f77b4"/>
     <use xlink:href="#m77f49b9da6" x="119.037791" y="269.599013" style="fill: #1f77b4; stroke: #1f77b4"/>
     <use xlink:href="#m77f49b9da6" x="123.147342" y="263.166403" style="fill: #1f77b4; stroke: #1f77b4"/>
     <use xlink:href="#m77f49b9da6" x="127.256893" y="252.30255" style="fill: #1f77b4; stroke: #1f77b4"/>
     <use xlink:href="#m77f49b9da6" x="131.366444" y="227.253949" style="fill: #1f77b4; stroke: #1f77b4"/>
     <use xlink:href="#m77f49b9da6" x="135.475995" y="223.886646" style="fill: #1f77b4; stroke: #1f77b4"/>
     <use xlink:href="#m77f49b9da6" x="139.585547" y="203.266504" style="fill: #1f77b4; stroke: #1f77b4"/>
     <use xlink:href="#m77f49b9da6" x="143.695098" y="172.812007" style="fill: #1f77b4; stroke: #1f77b4"/>
     <use xlink:href="#m77f49b9da6" x="147.804649" y="161.040573" style="fill: #1f77b4; stroke: #1f77b4"/>
     <use xlink:href="#m77f49b9da6" x="151.9142" y="146.304526" style="fill: #1f77b4; stroke: #1f77b4"/>
     <use xlink:href="#m77f49b9da6" x="156.023751" y="107.954119" style="fill: #1f77b4; stroke: #1f77b4"/>
     <use xlink:href="#m77f49b9da6" x="160.133303" y="73.105996" style="fill: #1f77b4; stroke: #1f77b4"/>
     <use xlink:href="#m77f49b9da6" x="164.242854" y="53.568" style="fill: #1f77b4; stroke: #1f77b4"/>
     <use xlink:href="#m77f49b9da6" x="168.352405" y="59.499627" style="fill: #1f77b4; stroke: #1f77b4"/>
     <use xlink:href="#m77f49b9da6" x="172.461956" y="54.130735" style="fill: #1f77b4; stroke: #1f77b4"/>
     <use xlink:href="#m77f49b9da6" x="176.571507" y="68.051828" style="fill: #1f77b4; stroke: #1f77b4"/>
     <use xlink:href="#m77f49b9da6" x="180.681059" y="100.24655" style="fill: #1f77b4; stroke: #1f77b4"/>
     <use xlink:href="#m77f49b9da6" x="184.79061" y="114.423761" style="fill: #1f77b4; stroke: #1f77b4"/>
     <use xlink:href="#m77f49b9da6" x="188.900161" y="139.674711" style="fill: #1f77b4; stroke: #1f77b4"/>
     <use xlink:href="#m77f49b9da6" x="193.009712" y="164.129098" style="fill: #1f77b4; stroke: #1f77b4"/>
     <use xlink:href="#m77f49b9da6" x="197.119264" y="181.028356" style="fill: #1f77b4; stroke: #1f77b4"/>
     <use xlink:href="#m77f49b9da6" x="201.228815" y="184.648812" style="fill: #1f77b4; stroke: #1f77b4"/>
     <use xlink:href="#m77f49b9da6" x="205.338366" y="209.564477" style="fill: #1f77b4; stroke: #1f77b4"/>
     <use xlink:href="#m77f49b9da6" x="209.447917" y="206.568846" style="fill: #1f77b4; stroke: #1f77b4"/>
     <use xlink:href="#m77f49b9da6" x="213.557468" y="216.355729" style="fill: #1f77b4; stroke: #1f77b4"/>
     <use xlink:href="#m77f49b9da6" x="217.66702" y="224.214972" style="fill: #1f77b4; stroke: #1f77b4"/>
     <use xlink:href="#m77f49b9da6" x="221.776571" y="225.384619" style="fill: #1f77b4; stroke: #1f77b4"/>
     <use xlink:href="#m77f49b9da6" x="225.886122" y="228.097014" style="fill: #1f77b4; stroke: #1f77b4"/>
     <use xlink:href="#m77f49b9da6" x="229.995673" y="239.089739" style="fill: #1f77b4; stroke: #1f77b4"/>
     <use xlink:href="#m77f49b9da6" x="234.105224" y="228.200796" style="fill: #1f77b4; stroke: #1f77b4"/>
     <use xlink:href="#m77f49b9da6" x="238.214776" y="237.613468" style="fill: #1f77b4; stroke: #1f77b4"/>
     <use xlink:href="#m77f49b9da6" x="242.324327" y="242.926827" style="fill: #1f77b4; stroke: #1f77b4"/>
     <use xlink:href="#m77f49b9da6" x="246.433878" y="244.443093" style="fill: #1f77b4; stroke: #1f77b4"/>
     <use xlink:href="#m77f49b9da6" x="250.543429" y="256.144516" style="fill: #1f77b4; stroke: #1f77b4"/>
     <use xlink:href="#m77f49b9da6" x="254.65298" y="260.269625" style="fill: #1f77b4; stroke: #1f77b4"/>
     <use xlink:href="#m77f49b9da6" x="258.762532" y="263.257921" style="fill: #1f77b4; stroke: #1f77b4"/>
     <use xlink:href="#m77f49b9da6" x="262.872083" y="268.599153" style="fill: #1f77b4; stroke: #1f77b4"/>
     <use xlink:href="#m77f49b9da6" x="266.981634" y="264.287589" style="fill: #1f77b4; stroke: #1f77b4"/>
     <use xlink:href="#m77f49b9da6" x="271.091185" y="267.345772" style="fill: #1f77b4; stroke: #1f77b4"/>
     <use xlink:href="#m77f49b9da6" x="275.200736" y="272.254872" style="fill: #1f77b4; stroke: #1f77b4"/>
     <use xlink:href="#m77f49b9da6" x="279.310288" y="268.221656" style="fill: #1f77b4; stroke: #1f77b4"/>
     <use xlink:href="#m77f49b9da6" x="283.419839" y="271.946323" style="fill: #1f77b4; stroke: #1f77b4"/>
     <use xlink:href="#m77f49b9da6" x="287.52939" y="270.075729" style="fill: #1f77b4; stroke: #1f77b4"/>
     <use xlink:href="#m77f49b9da6" x="291.638941" y="271.855243" style="fill: #1f77b4; stroke: #1f77b4"/>
     <use xlink:href="#m77f49b9da6" x="295.748493" y="272.117402" style="fill: #1f77b4; stroke: #1f77b4"/>
     <use xlink:href="#m77f49b9da6" x="299.858044" y="271.8846" style="fill: #1f77b4; stroke: #1f77b4"/>
     <use xlink:href="#m77f49b9da6" x="303.967595" y="272.216992" style="fill: #1f77b4; stroke: #1f77b4"/>
     <use xlink:href="#m77f49b9da6" x="308.077146" y="269.435031" style="fill: #1f77b4; stroke: #1f77b4"/>
     <use xlink:href="#m77f49b9da6" x="312.186697" y="274.648891" style="fill: #1f77b4; stroke: #1f77b4"/>
     <use xlink:href="#m77f49b9da6" x="316.296249" y="272.23033" style="fill: #1f77b4; stroke: #1f77b4"/>
     <use xlink:href="#m77f49b9da6" x="320.4058" y="272.433107" style="fill: #1f77b4; stroke: #1f77b4"/>
     <use xlink:href="#m77f49b9da6" x="324.515351" y="271.955486" style="fill: #1f77b4; stroke: #1f77b4"/>
     <use xlink:href="#m77f49b9da6" x="328.624902" y="273.40642" style="fill: #1f77b4; stroke: #1f77b4"/>
     <use xlink:href="#m77f49b9da6" x="332.734453" y="270.653501" style="fill: #1f77b4; stroke: #1f77b4"/>
     <use xlink:href="#m77f49b9da6" x="336.844005" y="271.386643" style="fill: #1f77b4; stroke: #1f77b4"/>
     <use xlink:href="#m77f49b9da6" x="340.953556" y="271.077666" style="fill: #1f77b4; stroke: #1f77b4"/>
     <use xlink:href="#m77f49b9da6" x="345.063107" y="273.107163" style="fill: #1f77b4; stroke: #1f77b4"/>
     <use xlink:href="#m77f49b9da6" x="349.172658" y="267.839891" style="fill: #1f77b4; stroke: #1f77b4"/>
     <use xlink:href="#m77f49b9da6" x="353.282209" y="267.480687" style="fill: #1f77b4; stroke: #1f77b4"/>
     <use xlink:href="#m77f49b9da6" x="357.391761" y="269.543414" style="fill: #1f77b4; stroke: #1f77b4"/>
     <use xlink:href="#m77f49b9da6" x="361.501312" y="269.549601" style="fill: #1f77b4; stroke: #1f77b4"/>
     <use xlink:href="#m77f49b9da6" x="365.610863" y="271.740707" style="fill: #1f77b4; stroke: #1f77b4"/>
     <use xlink:href="#m77f49b9da6" x="369.720414" y="267.19215" style="fill: #1f77b4; stroke: #1f77b4"/>
     <use xlink:href="#m77f49b9da6" x="373.829965" y="270.832214" style="fill: #1f77b4; stroke: #1f77b4"/>
     <use xlink:href="#m77f49b9da6" x="377.939517" y="271.830346" style="fill: #1f77b4; stroke: #1f77b4"/>
     <use xlink:href="#m77f49b9da6" x="382.049068" y="274.035309" style="fill: #1f77b4; stroke: #1f77b4"/>
     <use xlink:href="#m77f49b9da6" x="386.158619" y="274.338681" style="fill: #1f77b4; stroke: #1f77b4"/>
     <use xlink:href="#m77f49b9da6" x="390.26817" y="277.142581" style="fill: #1f77b4; stroke: #1f77b4"/>
     <use xlink:href="#m77f49b9da6" x="394.377722" y="275.662431" style="fill: #1f77b4; stroke: #1f77b4"/>
     <use xlink:href="#m77f49b9da6" x="398.487273" y="277.233656" style="fill: #1f77b4; stroke: #1f77b4"/>
    </g>
   </g>
   <g id="patch_3">
    <path d="M 57.6 307.584 
L 57.6 41.472 
" style="fill: none; stroke: #000000; stroke-width: 3; stroke-linejoin: miter; stroke-linecap: square"/>
   </g>
   <g id="patch_4">
    <path d="M 414.72 307.584 
L 414.72 41.472 
" style="fill: none; stroke: #000000; stroke-width: 3; stroke-linejoin: miter; stroke-linecap: square"/>
   </g>
   <g id="patch_5">
    <path d="M 57.6 307.584 
L 414.72 307.584 
" style="fill: none; stroke: #000000; stroke-width: 3; stroke-linejoin: miter; stroke-linecap: square"/>
   </g>
   <g id="patch_6">
    <path d="M 57.6 41.472 
L 414.72 41.472 
" style="fill: none; stroke: #000000; stroke-width: 3; stroke-linejoin: miter; stroke-linecap: square"/>
   </g>
   <g id="legend_1">
    <g id="patch_7">
     <path d="M 329.759063 64.150125 
L 407.72 64.150125 
Q 409.72 64.150125 409.72 62.150125 
L 409.72 48.472 
Q 409.72 46.472 407.72 46.472 
L 329.759063 46.472 
Q 327.759063 46.472 327.759063 48.472 
L 327.759063 62.150125 
Q 327.759063 64.150125 329.759063 64.150125 
z
" style="fill: #ffffff; opacity: 0.8; stroke: #cccccc; stroke-linejoin: miter"/>
    </g>
    <g id="line2d_20">
     <path d="M 331.759063 54.570438 
L 341.759063 54.570438 
L 351.759063 54.570438 
" style="fill: none; stroke: #1f77b4; stroke-width: 1.5; stroke-linecap: square"/>
     <g>
      <use xlink:href="#m77f49b9da6" x="341.759063" y="54.570438" style="fill: #1f77b4; stroke: #1f77b4"/>
     </g>
    </g>
    <g id="text_21">
     <!-- 11.0 GHz -->
     <g transform="translate(359.759063 58.070438) scale(0.1 -0.1)">
      <defs>
       <path id="DejaVuSans-47" d="M 3809 666 
L 3809 1919 
L 2778 1919 
L 2778 2438 
L 4434 2438 
L 4434 434 
Q 4069 175 3628 42 
Q 3188 -91 2688 -91 
Q 1594 -91 976 548 
Q 359 1188 359 2328 
Q 359 3472 976 4111 
Q 1594 4750 2688 4750 
Q 3144 4750 3555 4637 
Q 3966 4525 4313 4306 
L 4313 3634 
Q 3963 3931 3569 4081 
Q 3175 4231 2741 4231 
Q 1884 4231 1454 3753 
Q 1025 3275 1025 2328 
Q 1025 1384 1454 906 
Q 1884 428 2741 428 
Q 3075 428 3337 486 
Q 3600 544 3809 666 
z
" transform="scale(0.015625)"/>
       <path id="DejaVuSans-48" d="M 628 4666 
L 1259 4666 
L 1259 2753 
L 3553 2753 
L 3553 4666 
L 4184 4666 
L 4184 0 
L 3553 0 
L 3553 2222 
L 1259 2222 
L 1259 0 
L 628 0 
L 628 4666 
z
" transform="scale(0.015625)"/>
       <path id="DejaVuSans-7a" d="M 353 3500 
L 3084 3500 
L 3084 2975 
L 922 459 
L 3084 459 
L 3084 0 
L 275 0 
L 275 525 
L 2438 3041 
L 353 3041 
L 353 3500 
z
" transform="scale(0.015625)"/>
      </defs>
      <use xlink:href="#DejaVuSans-31"/>
      <use xlink:href="#DejaVuSans-31" x="63.623047"/>
      <use xlink:href="#DejaVuSans-2e" x="127.246094"/>
      <use xlink:href="#DejaVuSans-30" x="159.033203"/>
      <use xlink:href="#DejaVuSans-20" x="222.65625"/>
      <use xlink:href="#DejaVuSans-47" x="254.443359"/>
      <use xlink:href="#DejaVuSans-48" x="331.933594"/>
      <use xlink:href="#DejaVuSans-7a" x="407.128906"/>
     </g>
    </g>
   </g>
  </g>
 </g>
 <defs>
  <clipPath id="p696c52fabf">
   <rect x="57.6" y="41.472" width="357.12" height="266.112"/>
  </clipPath>
 </defs>
</svg>
